<svg width="134" height="131" viewBox="0 0 134 131" fill="none" xmlns="http://www.w3.org/2000/svg">
<g filter="url(#filter0_f_1736_132356)">
<ellipse cx="69" cy="121" rx="44" ry="4" fill="#7D7B7E"/>
</g>
<mask id="path-2-outside-1_1736_132356" maskUnits="userSpaceOnUse" x="0" y="0" width="134" height="122" fill="black">
<rect fill="white" width="134" height="122"/>
<path fill-rule="evenodd" clip-rule="evenodd" d="M35 1C16.2223 1 1 16.2223 1 35V65.2498C1 83.3736 15.1808 98.1855 33.0521 99.1949C45.0415 127.272 65.9818 120.792 70.8652 119.28C71.1056 119.206 71.3071 119.144 71.4667 119.098C59.2784 110.534 55.8142 103.2 55.4604 99.2498H99C117.778 99.2498 133 84.0274 133 65.2498V35C133 16.2223 117.778 1 99 1H35Z"/>
</mask>
<path fill-rule="evenodd" clip-rule="evenodd" d="M35 1C16.2223 1 1 16.2223 1 35V65.2498C1 83.3736 15.1808 98.1855 33.0521 99.1949C45.0415 127.272 65.9818 120.792 70.8652 119.28C71.1056 119.206 71.3071 119.144 71.4667 119.098C59.2784 110.534 55.8142 103.2 55.4604 99.2498H99C117.778 99.2498 133 84.0274 133 65.2498V35C133 16.2223 117.778 1 99 1H35Z" fill="url(#paint0_linear_1736_132356)"/>
<path d="M33.0521 99.1949L33.9717 98.8022L33.728 98.2315L33.1085 98.1965L33.0521 99.1949ZM70.8652 119.28L70.5696 118.325H70.5696L70.8652 119.28ZM71.4667 119.098L71.7414 120.06L73.7555 119.484L72.0416 118.28L71.4667 119.098ZM55.4604 99.2498V98.2498H54.3669L54.4644 99.339L55.4604 99.2498ZM2 35C2 16.7746 16.7746 2 35 2V0C15.67 0 0 15.67 0 35H2ZM2 65.2498V35H0V65.2498H2ZM33.1085 98.1965C15.7637 97.2168 2 82.8403 2 65.2498H0C0 83.907 14.5979 99.1541 32.9957 100.193L33.1085 98.1965ZM32.1324 99.5876C38.2343 113.877 46.7002 119.525 54.3978 121.307C62.0215 123.073 68.7014 120.997 71.1608 120.236L70.5696 118.325C68.1456 119.075 61.9137 120.995 54.849 119.359C47.8583 117.74 39.8593 112.59 33.9717 98.8022L32.1324 99.5876ZM71.1608 120.236C71.4052 120.16 71.5947 120.101 71.7414 120.06L71.192 118.136C71.0195 118.186 70.806 118.252 70.5696 118.325L71.1608 120.236ZM72.0416 118.28C59.9644 109.794 56.7725 102.689 56.4564 99.1606L54.4644 99.339C54.8559 103.71 58.5925 111.274 70.8918 119.916L72.0416 118.28ZM99 98.2498H55.4604V100.25H99V98.2498ZM132 65.2498C132 83.4752 117.225 98.2498 99 98.2498V100.25C118.33 100.25 134 84.5797 134 65.2498H132ZM132 35V65.2498H134V35H132ZM99 2C117.225 2 132 16.7746 132 35H134C134 15.67 118.33 0 99 0V2ZM35 2H99V0H35V2Z" fill="#D6D0A4" mask="url(#path-2-outside-1_1736_132356)"/>
<mask id="mask0_1736_132356" style="mask-type:alpha" maskUnits="userSpaceOnUse" x="1" y="1" width="132" height="121">
<path fill-rule="evenodd" clip-rule="evenodd" d="M35 1C16.2223 1 1 16.2223 1 35V65.2498C1 83.3736 15.1808 98.1855 33.0521 99.1949C45.0415 127.272 65.9818 120.792 70.8652 119.28C71.1056 119.206 71.3071 119.144 71.4667 119.098C59.2784 110.534 55.8142 103.2 55.4604 99.2498H99C117.778 99.2498 133 84.0274 133 65.2498V35C133 16.2223 117.778 1 99 1H35Z" fill="url(#paint1_linear_1736_132356)"/>
</mask>
<g mask="url(#mask0_1736_132356)">
<path d="M0.441612 66.8181C95 59 141.208 46.4735 146.336 43L149.313 84.6817L94.7273 139.761C19.7949 119.913 -104.159 75.4666 0.441612 66.8181Z" fill="#FFE500"/>
</g>
<defs>
<filter id="filter0_f_1736_132356" x="19" y="111" width="100" height="20" filterUnits="userSpaceOnUse" color-interpolation-filters="sRGB">
<feFlood flood-opacity="0" result="BackgroundImageFix"/>
<feBlend mode="normal" in="SourceGraphic" in2="BackgroundImageFix" result="shape"/>
<feGaussianBlur stdDeviation="3" result="effect1_foregroundBlur_1736_132356"/>
</filter>
<linearGradient id="paint0_linear_1736_132356" x1="138.459" y1="26.3067" x2="1.13615" y2="49.571" gradientUnits="userSpaceOnUse">
<stop stop-color="#FFFF22"/>
<stop offset="0.925921" stop-color="white"/>
</linearGradient>
<linearGradient id="paint1_linear_1736_132356" x1="138.459" y1="26.3067" x2="-5.44945" y2="71.9632" gradientUnits="userSpaceOnUse">
<stop stop-color="#FFFF22"/>
<stop offset="1" stop-color="white"/>
</linearGradient>
</defs>
</svg>
