<svg width="175" height="100" viewBox="0 0 175 100" fill="none" xmlns="http://www.w3.org/2000/svg">
<rect width="175" height="100" rx="6" fill="url(#paint0_linear_9851_230919)"/>
<g clip-path="url(#clip0_9851_230919)">
<rect x="68" y="49" width="32" height="4" rx="2" fill="black"/>
<path d="M101.923 30.847C101.605 29.681 100.392 28.9887 99.2085 29.302L91.3448 31.3789L81.1361 22L78.2806 22.7579L84.4058 33.2154L77.0526 35.1538L74.1453 32.902L72 33.4704L75.8246 40L100.355 33.5215C101.539 33.2081 102.242 32.013 101.923 30.847Z" fill="black"/>
<line x1="83.6648" y1="36.6226" x2="54.6226" y2="45.3352" stroke="black" stroke-linecap="round" stroke-dasharray="10 10"/>
</g>
<path d="M50.7493 66V76.7C50.7493 77.78 50.5293 78.6 50.0893 79.16C49.6493 79.72 48.9426 80 47.9693 80H45.9893L41.8693 70.46V80H39.2293V66H42.4093L47.4893 77.6H47.5293C47.756 77.6 47.9093 77.5067 47.9893 77.32C48.0693 77.12 48.1093 76.7667 48.1093 76.26V66H50.7493ZM57.4368 80.24C56.0501 80.24 54.9835 79.92 54.2368 79.28C53.4901 78.64 53.1168 77.7267 53.1168 76.54V74.06C53.1168 72.8733 53.4901 71.96 54.2368 71.32C54.9835 70.68 56.0501 70.36 57.4368 70.36C58.8235 70.36 59.8901 70.68 60.6368 71.32C61.3835 71.96 61.7568 72.8733 61.7568 74.06V76.54C61.7568 77.7267 61.3835 78.64 60.6368 79.28C59.8901 79.92 58.8235 80.24 57.4368 80.24ZM57.4368 78.24C57.9835 78.24 58.4035 78.0933 58.6968 77.8C59.0035 77.5067 59.1568 77.0867 59.1568 76.54V74.06C59.1568 73.5133 59.0035 73.0933 58.6968 72.8C58.4035 72.5067 57.9835 72.36 57.4368 72.36C56.8901 72.36 56.4635 72.5067 56.1568 72.8C55.8635 73.0933 55.7168 73.5133 55.7168 74.06V76.54C55.7168 77.0867 55.8635 77.5067 56.1568 77.8C56.4635 78.0933 56.8901 78.24 57.4368 78.24ZM61.0168 64.68H63.5368L61.6568 67.2H59.7568L61.0168 64.68ZM53.8568 69.3C54.2035 68.98 54.6168 68.52 55.0968 67.92C55.5901 67.32 55.9968 66.72 56.3168 66.12H58.5168C58.8368 66.72 59.2368 67.32 59.7168 67.92C60.2101 68.52 60.6301 68.98 60.9768 69.3H58.6968C58.1635 68.8333 57.7368 68.34 57.4168 67.82C57.0968 68.34 56.6701 68.8333 56.1368 69.3H53.8568ZM65.406 69.34C64.9927 69.34 64.6393 69.1933 64.346 68.9C64.0527 68.6067 63.906 68.2533 63.906 67.84C63.906 67.44 64.0527 67.0933 64.346 66.8C64.6393 66.4933 64.9927 66.34 65.406 66.34C65.806 66.34 66.1527 66.4933 66.446 66.8C66.7527 67.0933 66.906 67.44 66.906 67.84C66.906 68.2533 66.7527 68.6067 66.446 68.9C66.1527 69.1933 65.806 69.34 65.406 69.34ZM65.926 80.24C65.246 79.8933 64.7727 79.5 64.506 79.06C64.2393 78.6067 64.106 77.98 64.106 77.18V70.6H66.706V77.1C66.706 77.46 66.7727 77.7533 66.906 77.98C67.0527 78.2067 67.306 78.4533 67.666 78.72L65.926 80.24ZM79.097 80.24C77.7103 80.24 76.6436 79.92 75.897 79.28C75.1503 78.64 74.777 77.7267 74.777 76.54V74.06C74.777 72.8733 75.1503 71.96 75.897 71.32C76.6436 70.68 77.7103 70.36 79.097 70.36C80.8303 70.36 82.0703 70.8867 82.817 71.94L81.037 73.38C80.717 73.0067 80.4236 72.7467 80.157 72.6C79.8903 72.44 79.537 72.36 79.097 72.36C78.5503 72.36 78.1236 72.5067 77.817 72.8C77.5236 73.0933 77.377 73.5133 77.377 74.06V76.54C77.377 77.0867 77.5236 77.5067 77.817 77.8C78.1236 78.0933 78.5503 78.24 79.097 78.24C79.537 78.24 79.8903 78.1667 80.157 78.02C80.4236 77.86 80.717 77.5933 81.037 77.22L82.817 78.66C82.4436 79.1933 81.9636 79.5933 81.377 79.86C80.7903 80.1133 80.0303 80.24 79.097 80.24ZM89.8352 70.36C90.8619 70.36 91.6486 70.64 92.1952 71.2C92.7552 71.76 93.0352 72.56 93.0352 73.6V80H90.4352V73.84C90.4352 73.3867 90.3086 73.0267 90.0552 72.76C89.8152 72.4933 89.4886 72.36 89.0752 72.36C88.1952 72.36 87.5619 72.88 87.1752 73.92V80H84.5752V68.14C84.5752 67.78 84.5019 67.4867 84.3552 67.26C84.2219 67.0333 83.9752 66.7867 83.6152 66.52L85.3552 65C86.0352 65.3467 86.5086 65.7467 86.7752 66.2C87.0419 66.64 87.1752 67.26 87.1752 68.06V71.54C87.7886 70.7533 88.6752 70.36 89.8352 70.36ZM103.989 77.06C103.989 77.42 104.055 77.7133 104.189 77.94C104.335 78.1667 104.589 78.4133 104.949 78.68L103.209 80.2C102.769 79.9733 102.422 79.7333 102.169 79.48C101.915 79.2267 101.722 78.9267 101.589 78.58C100.975 79.6867 100.022 80.24 98.7285 80.24C97.6752 80.24 96.8618 79.96 96.2885 79.4C95.7152 78.84 95.4285 78.04 95.4285 77V70.6H98.0285V76.76C98.0285 77.2133 98.1552 77.5733 98.4085 77.84C98.6752 78.1067 99.0352 78.24 99.4885 78.24C100.369 78.24 101.002 77.6667 101.389 76.52V70.6H103.989V77.06ZM115.559 70.6V80.88C115.559 82.1867 115.199 83.1333 114.479 83.72C113.773 84.3067 112.619 84.6 111.019 84.6H108.379V82.6H111.019C111.699 82.6 112.193 82.4667 112.499 82.2C112.806 81.9333 112.959 81.4933 112.959 80.88V78.74C112.346 79.7133 111.393 80.2 110.099 80.2C109.046 80.2 108.233 79.92 107.659 79.36C107.086 78.8 106.799 78 106.799 76.96V73.5C106.799 73.14 106.726 72.8467 106.579 72.62C106.446 72.3933 106.199 72.1467 105.839 71.88L107.579 70.36C108.259 70.7067 108.733 71.1067 108.999 71.56C109.266 72 109.399 72.62 109.399 73.42V76.72C109.399 77.1733 109.526 77.5333 109.779 77.8C110.046 78.0667 110.406 78.2 110.859 78.2C111.473 78.2 111.933 78 112.239 77.6C112.559 77.2 112.799 76.6733 112.959 76.02V70.6H115.559ZM121.832 78.28C122.325 78.28 122.725 78.22 123.032 78.1C123.338 77.9667 123.672 77.74 124.032 77.42L125.572 78.82C124.798 79.7667 123.552 80.24 121.832 80.24C120.298 80.24 119.192 79.9533 118.512 79.38C117.832 78.7933 117.492 77.8467 117.492 76.54V73.68C117.492 72.6533 117.858 71.8467 118.592 71.26C119.338 70.66 120.352 70.36 121.632 70.36C122.952 70.36 123.985 70.68 124.732 71.32C125.478 71.9467 125.852 72.8667 125.852 74.08C125.852 74.6667 125.798 75.12 125.692 75.44C125.598 75.76 125.405 76 125.112 76.16C124.818 76.3067 124.392 76.38 123.832 76.38H120.072V76.56C120.072 77.7067 120.658 78.28 121.832 78.28ZM121.632 72.32C121.138 72.32 120.752 72.4667 120.472 72.76C120.205 73.04 120.072 73.4133 120.072 73.88V74.6H122.352C122.698 74.6 122.938 74.5467 123.072 74.44C123.205 74.3333 123.272 74.1467 123.272 73.88C123.272 73.3733 123.132 72.9867 122.852 72.72C122.572 72.4533 122.165 72.32 121.632 72.32ZM125.212 64.68H127.732L125.852 67.2H123.952L125.212 64.68ZM118.052 69.3C118.398 68.98 118.812 68.52 119.292 67.92C119.785 67.32 120.192 66.72 120.512 66.12H122.712C123.032 66.72 123.432 67.32 123.912 67.92C124.405 68.52 124.825 68.98 125.172 69.3H122.892C122.358 68.8333 121.932 68.34 121.612 67.82C121.292 68.34 120.865 68.8333 120.332 69.3H118.052ZM133.077 70.36C134.104 70.36 134.891 70.64 135.437 71.2C135.997 71.76 136.277 72.56 136.277 73.6V80H133.677V73.84C133.677 73.3867 133.551 73.0267 133.297 72.76C133.057 72.4933 132.731 72.36 132.317 72.36C131.437 72.36 130.804 72.88 130.417 73.92V80H127.817V73.5C127.817 73.14 127.744 72.8467 127.597 72.62C127.464 72.3933 127.217 72.1467 126.857 71.88L128.597 70.36C129.024 70.5733 129.357 70.8 129.597 71.04C129.851 71.28 130.044 71.56 130.177 71.88C130.457 71.4267 130.831 71.06 131.297 70.78C131.777 70.5 132.371 70.36 133.077 70.36Z" fill="#474747"/>
<defs>
<linearGradient id="paint0_linear_9851_230919" x1="-63.4804" y1="50" x2="55.9172" y2="-69.2401" gradientUnits="userSpaceOnUse">
<stop stop-color="#F9A51A"/>
<stop offset="0.267357" stop-color="#FBB612"/>
<stop offset="0.881951" stop-color="#FFDD00"/>
</linearGradient>
<clipPath id="clip0_9851_230919">
<rect width="45" height="45" fill="white" transform="translate(62 13)"/>
</clipPath>
</defs>
</svg>
