<svg width="175" height="101" viewBox="0 0 175 101" fill="none" xmlns="http://www.w3.org/2000/svg">
<rect y="0.00195312" width="175" height="100" rx="6" fill="url(#paint0_linear_8565_228790)"/>
<path d="M91.8224 38.0527C91.8224 35.3803 93.9467 33.2104 96.563 33.2104C97.055 33.2104 97.5392 33.2902 98 33.4418V28.9665C98 27.5705 96.8832 26.4297 95.5165 26.4297H77.4835C76.1168 26.4297 75 27.5705 75 28.9665V38.8185L78.2958 37.247C78.8268 36.9917 79.4594 37.231 79.7093 37.7735L81.6227 41.9457C81.8727 42.4881 81.6462 43.1343 81.1073 43.3896L75 46.3013V48.1122C75 49.5082 76.1168 50.649 77.4835 50.649H95.5165C96.8832 50.649 98 49.5082 98 48.1122V42.6636C97.5392 42.8152 97.055 42.887 96.563 42.887C93.9467 42.895 91.8224 40.7171 91.8224 38.0527Z" fill="black"/>
<path d="M78.2333 39.6797L75 41.2193V43.8997L79.2407 41.8735L78.2333 39.6797Z" fill="black"/>
<path d="M93.9546 38.0521C93.9546 39.52 95.1261 40.7166 96.5631 40.7166C97.0785 40.7166 97.5705 40.565 98.0001 40.2778V35.8265C97.5784 35.5393 97.0863 35.3877 96.5631 35.3877C95.1261 35.3877 93.9546 36.5843 93.9546 38.0521Z" fill="black"/>
<path d="M90.9712 51.2391C90.9712 52.4437 91.924 53.4169 93.1033 53.4169C94.2826 53.4169 95.2354 52.4437 95.2354 51.2391V50.585H90.979V51.2391H90.9712Z" fill="black"/>
<path d="M77.7646 51.2391C77.7646 52.4437 78.7174 53.4169 79.8967 53.4169C81.076 53.4169 82.0288 52.4437 82.0288 51.2391V50.585H77.7646V51.2391Z" fill="black"/>
<path d="M80.1389 21.3477H80.5997V26.8201H82.7318V21.3477H90.2761V26.8201H92.4082V21.3477H92.869C94.0483 21.3477 95.0011 20.3744 95.0011 19.1698C94.9933 17.9732 94.0405 17 92.8612 17H80.1389C78.9596 17 78.0068 17.9732 78.0068 19.1778C78.0068 20.3744 78.9596 21.3477 80.1389 21.3477Z" fill="black"/>
<path d="M54.0418 64H56.8618V69.88H62.3018V64H65.1218V78H62.3018V72.08H56.8618V78H54.0418V64ZM76.1345 75.1C76.1345 75.46 76.2011 75.7533 76.3345 75.98C76.4811 76.2067 76.7345 76.4533 77.0945 76.72L75.3545 78.24C74.5945 77.8533 74.0745 77.3667 73.7945 76.78C73.5011 77.1933 73.1011 77.54 72.5945 77.82C72.0878 78.1 71.4611 78.24 70.7145 78.24C69.7678 78.24 69.0145 78 68.4545 77.52C67.8945 77.0267 67.6145 76.3333 67.6145 75.44C67.6145 74.64 67.8211 74.0267 68.2345 73.6C68.6611 73.16 69.1478 72.86 69.6945 72.7C70.2411 72.54 70.8478 72.4267 71.5145 72.36L72.4745 72.26C72.8611 72.22 73.1278 72.1533 73.2745 72.06C73.4345 71.9667 73.5211 71.8133 73.5345 71.6C73.5078 71.2 73.3745 70.86 73.1345 70.58C72.9078 70.3 72.4678 70.16 71.8145 70.16C71.3878 70.16 71.0145 70.24 70.6945 70.4C70.3745 70.56 70.0478 70.82 69.7145 71.18L67.9345 69.94C68.3211 69.4333 68.8078 69.0467 69.3945 68.78C69.9811 68.5 70.7878 68.36 71.8145 68.36C74.6945 68.36 76.1345 69.5267 76.1345 71.86V75.1ZM71.3745 76.38C72.0678 76.38 72.6011 76.2133 72.9745 75.88C73.3478 75.5333 73.5345 75.1133 73.5345 74.62V73.78C73.3211 73.86 72.9145 73.9333 72.3145 74L71.7145 74.06C71.2611 74.1 70.8811 74.2067 70.5745 74.38C70.2678 74.54 70.1145 74.8467 70.1145 75.3C70.1145 75.6467 70.2278 75.9133 70.4545 76.1C70.6811 76.2867 70.9878 76.38 71.3745 76.38ZM69.1145 64.16H71.8345L73.4345 67.3H71.3345L69.1145 64.16ZM83.9641 68.36C84.9908 68.36 85.7775 68.64 86.3241 69.2C86.8841 69.76 87.1641 70.56 87.1641 71.6V78H84.5641V71.84C84.5641 71.3867 84.4375 71.0267 84.1841 70.76C83.9441 70.4933 83.6175 70.36 83.2041 70.36C82.3241 70.36 81.6908 70.88 81.3041 71.92V78H78.7041V71.5C78.7041 71.14 78.6308 70.8467 78.4841 70.62C78.3508 70.3933 78.1041 70.1467 77.7441 69.88L79.4841 68.36C79.9108 68.5733 80.2441 68.8 80.4841 69.04C80.7375 69.28 80.9308 69.56 81.0641 69.88C81.3441 69.4267 81.7175 69.06 82.1841 68.78C82.6641 68.5 83.2575 68.36 83.9641 68.36ZM94.9798 68.36C96.0064 68.36 96.7931 68.64 97.3398 69.2C97.8998 69.76 98.1798 70.56 98.1798 71.6V78H95.5798V71.84C95.5798 71.3867 95.4531 71.0267 95.1998 70.76C94.9598 70.4933 94.6331 70.36 94.2198 70.36C93.3398 70.36 92.7064 70.88 92.3198 71.92V78H89.7198V66.14C89.7198 65.78 89.6464 65.4867 89.4998 65.26C89.3664 65.0333 89.1198 64.7867 88.7598 64.52L90.4998 63C91.1798 63.3467 91.6531 63.7467 91.9198 64.2C92.1864 64.64 92.3198 65.26 92.3198 66.06V69.54C92.9331 68.7533 93.8198 68.36 94.9798 68.36ZM108.259 78.24C107.579 77.8933 107.105 77.5 106.839 77.06C106.572 76.6067 106.439 75.98 106.439 75.18V66.14C106.439 65.78 106.365 65.4867 106.219 65.26C106.085 65.0333 105.839 64.7867 105.479 64.52L107.219 63C107.899 63.3467 108.372 63.7467 108.639 64.2C108.905 64.64 109.039 65.26 109.039 66.06V75.1C109.039 75.46 109.105 75.7533 109.239 75.98C109.385 76.2067 109.639 76.4533 109.999 76.72L108.259 78.24ZM120.626 68.6V78.88C120.626 80.1867 120.266 81.1333 119.546 81.72C118.839 82.3067 117.686 82.6 116.086 82.6H113.446V80.6H116.086C116.766 80.6 117.259 80.4667 117.566 80.2C117.873 79.9333 118.026 79.4933 118.026 78.88V76.74C117.413 77.7133 116.459 78.2 115.166 78.2C114.113 78.2 113.299 77.92 112.726 77.36C112.153 76.8 111.866 76 111.866 74.96V71.5C111.866 71.14 111.793 70.8467 111.646 70.62C111.513 70.3933 111.266 70.1467 110.906 69.88L112.646 68.36C113.326 68.7067 113.799 69.1067 114.066 69.56C114.333 70 114.466 70.62 114.466 71.42V74.72C114.466 75.1733 114.593 75.5333 114.846 75.8C115.113 76.0667 115.473 76.2 115.926 76.2C116.539 76.2 116.999 76 117.306 75.6C117.626 75.2 117.866 74.6733 118.026 74.02V68.6H120.626ZM116.486 64.16H119.206L116.986 67.3H114.886L116.486 64.16Z" fill="#474747"/>
<defs>
<linearGradient id="paint0_linear_8565_228790" x1="-63.4804" y1="50.002" x2="55.9172" y2="-69.2381" gradientUnits="userSpaceOnUse">
<stop stop-color="#F9A51A"/>
<stop offset="0.267357" stop-color="#FBB612"/>
<stop offset="0.881951" stop-color="#FFDD00"/>
</linearGradient>
</defs>
</svg>
