<svg width="175" height="100" viewBox="0 0 175 100" fill="none" xmlns="http://www.w3.org/2000/svg">
<rect width="175" height="100" rx="6" fill="url(#paint0_linear_8565_228791)"/>
<path d="M15.9117 64C17.4851 64 18.7251 64.2267 19.6317 64.68C20.5517 65.1333 21.2117 65.8667 21.6117 66.88C22.0251 67.88 22.2317 69.2533 22.2317 71C22.2317 72.7467 22.0251 74.1267 21.6117 75.14C21.2117 76.14 20.5517 76.8667 19.6317 77.32C18.7251 77.7733 17.4851 78 15.9117 78H10.7117V71.9H9.01172V69.98H10.7117V64H15.9117ZM15.9117 75.8C16.7917 75.8 17.4851 75.6467 17.9917 75.34C18.4984 75.0333 18.8584 74.5333 19.0717 73.84C19.2984 73.1467 19.4117 72.2 19.4117 71C19.4117 69.8 19.2984 68.8533 19.0717 68.16C18.8584 67.4667 18.4984 66.9667 17.9917 66.66C17.4851 66.3533 16.7917 66.2 15.9117 66.2H13.5317V69.98H17.0117V71.9H13.5317V75.8H15.9117ZM32.5505 75.1C32.5505 75.46 32.6171 75.7533 32.7505 75.98C32.8971 76.2067 33.1505 76.4533 33.5105 76.72L31.7705 78.24C31.0105 77.8533 30.4905 77.3667 30.2105 76.78C29.9171 77.1933 29.5171 77.54 29.0105 77.82C28.5038 78.1 27.8771 78.24 27.1305 78.24C26.1838 78.24 25.4305 78 24.8705 77.52C24.3105 77.0267 24.0305 76.3333 24.0305 75.44C24.0305 74.64 24.2371 74.0267 24.6505 73.6C25.0771 73.16 25.5638 72.86 26.1105 72.7C26.6571 72.54 27.2638 72.4267 27.9305 72.36L28.8905 72.26C29.2771 72.22 29.5438 72.1533 29.6905 72.06C29.8505 71.9667 29.9371 71.8133 29.9505 71.6C29.9238 71.2 29.7905 70.86 29.5505 70.58C29.3238 70.3 28.8838 70.16 28.2305 70.16C27.8038 70.16 27.4305 70.24 27.1105 70.4C26.7905 70.56 26.4638 70.82 26.1305 71.18L24.3505 69.94C24.7371 69.4333 25.2238 69.0467 25.8105 68.78C26.3971 68.5 27.2038 68.36 28.2305 68.36C31.1105 68.36 32.5505 69.5267 32.5505 71.86V75.1ZM27.7905 76.38C28.4838 76.38 29.0171 76.2133 29.3905 75.88C29.7638 75.5333 29.9505 75.1133 29.9505 74.62V73.78C29.7371 73.86 29.3305 73.9333 28.7305 74L28.1305 74.06C27.6771 74.1 27.2971 74.2067 26.9905 74.38C26.6838 74.54 26.5305 74.8467 26.5305 75.3C26.5305 75.6467 26.6438 75.9133 26.8705 76.1C27.0971 76.2867 27.4038 76.38 27.7905 76.38ZM28.7505 81.88C28.3505 81.88 28.0105 81.74 27.7305 81.46C27.4505 81.18 27.3105 80.84 27.3105 80.44C27.3105 80.0533 27.4505 79.7133 27.7305 79.42C28.0105 79.14 28.3505 79 28.7505 79C29.1371 79 29.4705 79.14 29.7505 79.42C30.0438 79.7133 30.1905 80.0533 30.1905 80.44C30.1905 80.84 30.0438 81.18 29.7505 81.46C29.4705 81.74 29.1371 81.88 28.7505 81.88ZM28.7505 67.5C27.7238 67.5 26.9105 67.2 26.3105 66.6C25.7105 65.9867 25.4105 65.1733 25.4105 64.16H27.2705C27.3105 64.64 27.4571 65.02 27.7105 65.3C27.9638 65.5667 28.3105 65.7 28.7505 65.7C29.1905 65.7 29.5371 65.56 29.7905 65.28C30.0571 65 30.2038 64.6267 30.2305 64.16H32.0905C32.0905 65.1733 31.7838 65.9867 31.1705 66.6C30.5705 67.2 29.7638 67.5 28.7505 67.5ZM37.5225 70.6V74.48C37.5225 75.04 37.6092 75.4333 37.7825 75.66C37.9558 75.8867 38.2492 76 38.6625 76H40.2425V78H38.6625C37.7292 78 36.9892 77.8867 36.4425 77.66C35.9092 77.4333 35.5225 77.0667 35.2825 76.56C35.0425 76.0533 34.9225 75.36 34.9225 74.48V67.14C34.9225 66.78 34.8492 66.4867 34.7025 66.26C34.5692 66.0333 34.3225 65.7867 33.9625 65.52L35.7025 64C36.3825 64.3467 36.8558 64.7467 37.1225 65.2C37.3892 65.64 37.5225 66.26 37.5225 67.06V68.6H40.2425V70.6H37.5225ZM51.5331 78.24C50.8398 78.24 50.2865 78.08 49.8731 77.76C49.4598 77.4267 49.1398 76.8867 48.9131 76.14L46.5531 68.6H49.0731L51.2731 75.9C51.3131 76.02 51.3465 76.1067 51.3731 76.16C51.4131 76.2133 51.4665 76.24 51.5331 76.24C51.6265 76.24 51.7065 76.1267 51.7731 75.9L53.9331 68.6H56.4531L54.1331 76.14C53.9065 76.8867 53.5931 77.4267 53.1931 77.76C52.7931 78.08 52.2398 78.24 51.5331 78.24ZM61.1853 76.28C61.6786 76.28 62.0786 76.22 62.3853 76.1C62.692 75.9667 63.0253 75.74 63.3853 75.42L64.9253 76.82C64.152 77.7667 62.9053 78.24 61.1853 78.24C59.652 78.24 58.5453 77.9533 57.8653 77.38C57.1853 76.7933 56.8453 75.8467 56.8453 74.54V71.68C56.8453 70.6533 57.212 69.8467 57.9453 69.26C58.692 68.66 59.7053 68.36 60.9853 68.36C62.3053 68.36 63.3386 68.68 64.0853 69.32C64.832 69.9467 65.2053 70.8667 65.2053 72.08C65.2053 72.6667 65.152 73.12 65.0453 73.44C64.952 73.76 64.7586 74 64.4653 74.16C64.172 74.3067 63.7453 74.38 63.1853 74.38H59.4253V74.56C59.4253 75.7067 60.012 76.28 61.1853 76.28ZM60.9853 70.32C60.492 70.32 60.1053 70.4667 59.8253 70.76C59.5586 71.04 59.4253 71.4133 59.4253 71.88V72.6H61.7053C62.052 72.6 62.292 72.5467 62.4253 72.44C62.5586 72.3333 62.6253 72.1467 62.6253 71.88C62.6253 71.3733 62.4853 70.9867 62.2053 70.72C61.9253 70.4533 61.5186 70.32 60.9853 70.32ZM61.3653 64.16H64.0853L61.8653 67.3H59.7653L61.3653 64.16ZM75.3741 70.6V74.48C75.3741 75.04 75.4607 75.4333 75.6341 75.66C75.8074 75.8867 76.1007 76 76.5141 76H78.0941V78H76.5141C75.5807 78 74.8407 77.8867 74.2941 77.66C73.7607 77.4333 73.3741 77.0667 73.1341 76.56C72.8941 76.0533 72.7741 75.36 72.7741 74.48V67.14C72.7741 66.78 72.7007 66.4867 72.5541 66.26C72.4207 66.0333 72.1741 65.7867 71.8141 65.52L73.5541 64C74.2341 64.3467 74.7074 64.7467 74.9741 65.2C75.2407 65.64 75.3741 66.26 75.3741 67.06V68.6H78.0941V70.6H75.3741ZM85.2792 68.36C85.9726 68.36 86.5592 68.5467 87.0392 68.92L86.3992 71.08C86.1192 70.8933 85.8526 70.76 85.5992 70.68C85.3459 70.6 85.0326 70.56 84.6592 70.56C83.7792 70.56 83.1459 71.1467 82.7592 72.32V78H80.1592V71.5C80.1592 71.14 80.0859 70.8467 79.9392 70.62C79.8059 70.3933 79.5592 70.1467 79.1992 69.88L80.9392 68.36C81.3926 68.6 81.7526 68.8533 82.0192 69.12C82.2859 69.3867 82.4792 69.7067 82.5992 70.08C82.8659 69.56 83.2192 69.1467 83.6592 68.84C84.0992 68.52 84.6392 68.36 85.2792 68.36ZM100.321 67.34C100.255 68.7667 99.9481 69.8133 99.4014 70.48C98.8547 71.1333 97.9547 71.5 96.7014 71.58V75.06C96.7014 75.42 96.7681 75.7133 96.9014 75.94C97.0481 76.1667 97.3014 76.4133 97.6614 76.68L95.9214 78.2C95.4814 77.9733 95.1347 77.7333 94.8814 77.48C94.6281 77.2267 94.4347 76.9267 94.3014 76.58C93.6881 77.6867 92.7347 78.24 91.4414 78.24C90.3881 78.24 89.5747 77.96 89.0014 77.4C88.4281 76.84 88.1414 76.04 88.1414 75V68.6H90.7414V74.76C90.7414 75.2133 90.8681 75.5733 91.1214 75.84C91.3881 76.1067 91.7481 76.24 92.2014 76.24C93.0814 76.24 93.7147 75.6667 94.1014 74.52V68.6H96.7014V70.26C97.2081 70.1533 97.5481 69.8667 97.7214 69.4C97.8947 68.9333 97.9881 68.2467 98.0014 67.34H100.321ZM92.0214 81.88C91.6214 81.88 91.2814 81.74 91.0014 81.46C90.7214 81.18 90.5814 80.84 90.5814 80.44C90.5814 80.0533 90.7214 79.7133 91.0014 79.42C91.2814 79.14 91.6214 79 92.0214 79C92.4081 79 92.7414 79.14 93.0214 79.42C93.3147 79.7133 93.4614 80.0533 93.4614 80.44C93.4614 80.84 93.3147 81.18 93.0214 81.46C92.7414 81.74 92.4081 81.88 92.0214 81.88ZM104.74 78.24C103.353 78.24 102.286 77.92 101.54 77.28C100.793 76.64 100.42 75.7267 100.42 74.54V72.06C100.42 70.8733 100.793 69.96 101.54 69.32C102.286 68.68 103.353 68.36 104.74 68.36C106.473 68.36 107.713 68.8867 108.46 69.94L106.68 71.38C106.36 71.0067 106.066 70.7467 105.8 70.6C105.533 70.44 105.18 70.36 104.74 70.36C104.193 70.36 103.766 70.5067 103.46 70.8C103.166 71.0933 103.02 71.5133 103.02 72.06V74.54C103.02 75.0867 103.166 75.5067 103.46 75.8C103.766 76.0933 104.193 76.24 104.74 76.24C105.18 76.24 105.533 76.1667 105.8 76.02C106.066 75.86 106.36 75.5933 106.68 75.22L108.46 76.66C108.086 77.1933 107.606 77.5933 107.02 77.86C106.433 78.1133 105.673 78.24 104.74 78.24ZM118.421 70.6V74.48C118.421 75.04 118.508 75.4333 118.681 75.66C118.854 75.8867 119.148 76 119.561 76H121.141V78H119.561C118.628 78 117.888 77.8867 117.341 77.66C116.808 77.4333 116.421 77.0667 116.181 76.56C115.941 76.0533 115.821 75.36 115.821 74.48V67.14C115.821 66.78 115.748 66.4867 115.601 66.26C115.468 66.0333 115.221 65.7867 114.861 65.52L116.601 64C117.281 64.3467 117.754 64.7467 118.021 65.2C118.288 65.64 118.421 66.26 118.421 67.06V68.6H121.141V70.6H118.421ZM131.506 75.06C131.506 75.42 131.573 75.7133 131.706 75.94C131.853 76.1667 132.106 76.4133 132.466 76.68L130.726 78.2C130.286 77.9733 129.939 77.7333 129.686 77.48C129.433 77.2267 129.239 76.9267 129.106 76.58C128.493 77.6867 127.539 78.24 126.246 78.24C125.193 78.24 124.379 77.96 123.806 77.4C123.233 76.84 122.946 76.04 122.946 75V68.6H125.546V74.76C125.546 75.2133 125.673 75.5733 125.926 75.84C126.193 76.1067 126.553 76.24 127.006 76.24C127.886 76.24 128.519 75.6667 128.906 74.52V68.6H131.506V75.06ZM143.077 68.6V78.88C143.077 80.1867 142.717 81.1333 141.997 81.72C141.29 82.3067 140.137 82.6 138.537 82.6H135.897V80.6H138.537C139.217 80.6 139.71 80.4667 140.017 80.2C140.324 79.9333 140.477 79.4933 140.477 78.88V76.74C139.864 77.7133 138.91 78.2 137.617 78.2C136.564 78.2 135.75 77.92 135.177 77.36C134.604 76.8 134.317 76 134.317 74.96V71.5C134.317 71.14 134.244 70.8467 134.097 70.62C133.964 70.3933 133.717 70.1467 133.357 69.88L135.097 68.36C135.777 68.7067 136.25 69.1067 136.517 69.56C136.784 70 136.917 70.62 136.917 71.42V74.72C136.917 75.1733 137.044 75.5333 137.297 75.8C137.564 76.0667 137.924 76.2 138.377 76.2C138.99 76.2 139.45 76 139.757 75.6C140.077 75.2 140.317 74.6733 140.477 74.02V68.6H143.077ZM149.349 76.28C149.843 76.28 150.243 76.22 150.549 76.1C150.856 75.9667 151.189 75.74 151.549 75.42L153.089 76.82C152.316 77.7667 151.069 78.24 149.349 78.24C147.816 78.24 146.709 77.9533 146.029 77.38C145.349 76.7933 145.009 75.8467 145.009 74.54V71.68C145.009 70.6533 145.376 69.8467 146.109 69.26C146.856 68.66 147.869 68.36 149.149 68.36C150.469 68.36 151.503 68.68 152.249 69.32C152.996 69.9467 153.369 70.8667 153.369 72.08C153.369 72.6667 153.316 73.12 153.209 73.44C153.116 73.76 152.923 74 152.629 74.16C152.336 74.3067 151.909 74.38 151.349 74.38H147.589V74.56C147.589 75.7067 148.176 76.28 149.349 76.28ZM149.149 70.32C148.656 70.32 148.269 70.4667 147.989 70.76C147.723 71.04 147.589 71.4133 147.589 71.88V72.6H149.869C150.216 72.6 150.456 72.5467 150.589 72.44C150.723 72.3333 150.789 72.1467 150.789 71.88C150.789 71.3733 150.649 70.9867 150.369 70.72C150.089 70.4533 149.683 70.32 149.149 70.32ZM152.729 62.68H155.249L153.369 65.2H151.469L152.729 62.68ZM145.569 67.3C145.916 66.98 146.329 66.52 146.809 65.92C147.303 65.32 147.709 64.72 148.029 64.12H150.229C150.549 64.72 150.949 65.32 151.429 65.92C151.923 66.52 152.343 66.98 152.689 67.3H150.409C149.876 66.8333 149.449 66.34 149.129 65.82C148.809 66.34 148.383 66.8333 147.849 67.3H145.569ZM160.595 68.36C161.622 68.36 162.408 68.64 162.955 69.2C163.515 69.76 163.795 70.56 163.795 71.6V78H161.195V71.84C161.195 71.3867 161.068 71.0267 160.815 70.76C160.575 70.4933 160.248 70.36 159.835 70.36C158.955 70.36 158.322 70.88 157.935 71.92V78H155.335V71.5C155.335 71.14 155.262 70.8467 155.115 70.62C154.982 70.3933 154.735 70.1467 154.375 69.88L156.115 68.36C156.542 68.5733 156.875 68.8 157.115 69.04C157.368 69.28 157.562 69.56 157.695 69.88C157.975 69.4267 158.348 69.06 158.815 68.78C159.295 68.5 159.888 68.36 160.595 68.36Z" fill="#474747"/>
<path d="M102 41.1053V37.9474L89.3684 30.0526V21.3684C89.3684 20.0579 88.3105 19 87 19C85.6895 19 84.6316 20.0579 84.6316 21.3684V30.0526L72 37.9474V41.1053L84.6316 37.1579V45.8421L81.4737 48.2105V50.5789L87 49L92.5263 50.5789V48.2105L89.3684 45.8421V37.1579L102 41.1053Z" fill="black"/>
<defs>
<linearGradient id="paint0_linear_8565_228791" x1="-63.4804" y1="50" x2="55.9172" y2="-69.2401" gradientUnits="userSpaceOnUse">
<stop stop-color="#F9A51A"/>
<stop offset="0.267357" stop-color="#FBB612"/>
<stop offset="0.881951" stop-color="#FFDD00"/>
</linearGradient>
</defs>
</svg>
