<svg width="175" height="100" viewBox="0 0 175 100" fill="none" xmlns="http://www.w3.org/2000/svg">
<rect width="175" height="100" rx="6" fill="url(#paint0_linear_8565_228786)"/>
<path d="M97.2896 24.4696C95.1859 21.0447 91.5247 19 87.5018 19C83.4716 19 79.8104 21.0447 77.7067 24.4696C75.6104 27.8798 75.4332 32.0504 77.2417 35.623C77.2564 35.6525 77.2712 35.682 77.2933 35.7115L85.221 47.7728C85.7303 48.5478 86.5792 49.0055 87.5018 49.0055C88.4245 49.0055 89.2808 48.5478 89.7827 47.7728L97.7103 35.7115C97.7251 35.682 97.7473 35.6525 97.762 35.623C99.5631 32.0504 99.3933 27.8798 97.2896 24.4696ZM93.407 30.36C93.407 33.6078 90.757 36.2504 87.4945 36.2504C84.2319 36.2504 81.5819 33.6078 81.5819 30.36C81.5819 27.1122 84.2319 24.4696 87.4945 24.4696C90.757 24.4696 93.407 27.1048 93.407 30.36Z" fill="black"/>
<path d="M88.7716 36.3592L87.037 38.0938C87.0148 38.1159 86.9927 38.1233 86.9558 38.1233C86.9262 38.1233 86.8967 38.1085 86.882 38.0864L86.2914 37.3704C85.9814 36.994 85.4278 36.9423 85.0514 37.2523C84.6749 37.5623 84.6232 38.1159 84.9333 38.4924L85.5238 39.2084C85.8559 39.6144 86.3505 39.8579 86.8672 39.8801C86.8967 39.8801 86.9262 39.8801 86.9558 39.8801C87.4503 39.8801 87.9227 39.6808 88.2697 39.3339L90.0043 37.5992C90.3512 37.2523 90.3512 36.6987 90.0043 36.3592C89.6648 36.0196 89.1111 36.0196 88.7716 36.3592Z" fill="black"/>
<path d="M55.3253 78.24C53.4453 78.24 52.012 77.8133 51.0253 76.96C50.0386 76.0933 49.5453 74.82 49.5453 73.14V68.86C49.5453 67.18 50.0386 65.9133 51.0253 65.06C52.012 64.1933 53.4453 63.76 55.3253 63.76C56.632 63.76 57.6986 63.98 58.5253 64.42C59.3653 64.8467 60.032 65.4933 60.5253 66.36L58.5053 67.76C58.092 67.12 57.6586 66.66 57.2053 66.38C56.7653 66.1 56.1386 65.96 55.3253 65.96C54.2986 65.96 53.5453 66.2067 53.0653 66.7C52.5986 67.18 52.3653 67.9 52.3653 68.86V73.14C52.3653 74.1 52.5986 74.8267 53.0653 75.32C53.5453 75.8 54.2986 76.04 55.3253 76.04C56.2053 76.04 56.8853 75.8933 57.3653 75.6C57.8586 75.2933 58.2986 74.8067 58.6853 74.14L60.6853 75.62C60.2586 76.2333 59.8186 76.7267 59.3653 77.1C58.912 77.4733 58.3586 77.76 57.7053 77.96C57.0653 78.1467 56.272 78.24 55.3253 78.24ZM67.8997 68.36C68.9264 68.36 69.713 68.64 70.2597 69.2C70.8197 69.76 71.0997 70.56 71.0997 71.6V78H68.4997V71.84C68.4997 71.3867 68.373 71.0267 68.1197 70.76C67.8797 70.4933 67.553 70.36 67.1397 70.36C66.2597 70.36 65.6264 70.88 65.2397 71.92V78H62.6397V66.14C62.6397 65.78 62.5664 65.4867 62.4197 65.26C62.2864 65.0333 62.0397 64.7867 61.6797 64.52L63.4197 63C64.0997 63.3467 64.573 63.7467 64.8397 64.2C65.1064 64.64 65.2397 65.26 65.2397 66.06V69.54C65.853 68.7533 66.7397 68.36 67.8997 68.36ZM77.533 76.28C78.0263 76.28 78.4263 76.22 78.733 76.1C79.0396 75.9667 79.373 75.74 79.733 75.42L81.273 76.82C80.4996 77.7667 79.253 78.24 77.533 78.24C75.9996 78.24 74.893 77.9533 74.213 77.38C73.533 76.7933 73.193 75.8467 73.193 74.54V71.68C73.193 70.6533 73.5596 69.8467 74.293 69.26C75.0396 68.66 76.053 68.36 77.333 68.36C78.653 68.36 79.6863 68.68 80.433 69.32C81.1796 69.9467 81.553 70.8667 81.553 72.08C81.553 72.6667 81.4996 73.12 81.393 73.44C81.2996 73.76 81.1063 74 80.813 74.16C80.5196 74.3067 80.093 74.38 79.533 74.38H75.773V74.56C75.773 75.7067 76.3596 76.28 77.533 76.28ZM77.333 70.32C76.8396 70.32 76.453 70.4667 76.173 70.76C75.9063 71.04 75.773 71.4133 75.773 71.88V72.6H78.053C78.3996 72.6 78.6396 72.5467 78.773 72.44C78.9063 72.3333 78.973 72.1467 78.973 71.88C78.973 71.3733 78.833 70.9867 78.553 70.72C78.273 70.4533 77.8663 70.32 77.333 70.32ZM87.3763 78.24C85.9896 78.24 84.9229 77.92 84.1763 77.28C83.4296 76.64 83.0563 75.7267 83.0563 74.54V72.06C83.0563 70.8733 83.4296 69.96 84.1763 69.32C84.9229 68.68 85.9896 68.36 87.3763 68.36C89.1096 68.36 90.3496 68.8867 91.0963 69.94L89.3163 71.38C88.9963 71.0067 88.7029 70.7467 88.4363 70.6C88.1696 70.44 87.8163 70.36 87.3763 70.36C86.8296 70.36 86.4029 70.5067 86.0963 70.8C85.8029 71.0933 85.6563 71.5133 85.6563 72.06V74.54C85.6563 75.0867 85.8029 75.5067 86.0963 75.8C86.4029 76.0933 86.8296 76.24 87.3763 76.24C87.8163 76.24 88.1696 76.1667 88.4363 76.02C88.7029 75.86 88.9963 75.5933 89.3163 75.22L91.0963 76.66C90.7229 77.1933 90.2429 77.5933 89.6563 77.86C89.0696 78.1133 88.3096 78.24 87.3763 78.24ZM101.855 78H99.1945L98.3145 74.84C98.2079 74.4667 98.0479 74.1933 97.8345 74.02C97.6212 73.8333 97.2612 73.7133 96.7545 73.66L95.4545 74.98V78H92.8545V66.14C92.8545 65.78 92.7812 65.4867 92.6345 65.26C92.5012 65.0333 92.2545 64.7867 91.8945 64.52L93.6345 63C94.3145 63.3467 94.7879 63.7467 95.0545 64.2C95.3212 64.64 95.4545 65.26 95.4545 66.06V71.82L98.5745 68.6H101.735L98.5545 71.82C99.1945 71.98 99.6879 72.2933 100.035 72.76C100.395 73.2267 100.708 73.92 100.975 74.84L101.855 78ZM102.451 72.1H108.031V73.8H102.451V72.1ZM111.674 67.34C111.26 67.34 110.907 67.1933 110.614 66.9C110.32 66.6067 110.174 66.2533 110.174 65.84C110.174 65.44 110.32 65.0933 110.614 64.8C110.907 64.4933 111.26 64.34 111.674 64.34C112.074 64.34 112.42 64.4933 112.714 64.8C113.02 65.0933 113.174 65.44 113.174 65.84C113.174 66.2533 113.02 66.6067 112.714 66.9C112.42 67.1933 112.074 67.34 111.674 67.34ZM112.194 78.24C111.514 77.8933 111.04 77.5 110.774 77.06C110.507 76.6067 110.374 75.98 110.374 75.18V68.6H112.974V75.1C112.974 75.46 113.04 75.7533 113.174 75.98C113.32 76.2067 113.574 76.4533 113.934 76.72L112.194 78.24ZM121.161 68.36C122.188 68.36 122.975 68.64 123.521 69.2C124.081 69.76 124.361 70.56 124.361 71.6V78H121.761V71.84C121.761 71.3867 121.635 71.0267 121.381 70.76C121.141 70.4933 120.815 70.36 120.401 70.36C119.521 70.36 118.888 70.88 118.501 71.92V78H115.901V71.5C115.901 71.14 115.828 70.8467 115.681 70.62C115.548 70.3933 115.301 70.1467 114.941 69.88L116.681 68.36C117.108 68.5733 117.441 68.8 117.681 69.04C117.935 69.28 118.128 69.56 118.261 69.88C118.541 69.4267 118.915 69.06 119.381 68.78C119.861 68.5 120.455 68.36 121.161 68.36Z" fill="#474747"/>
<defs>
<linearGradient id="paint0_linear_8565_228786" x1="-63.4804" y1="50" x2="55.9172" y2="-69.2401" gradientUnits="userSpaceOnUse">
<stop stop-color="#F9A51A"/>
<stop offset="0.267357" stop-color="#FBB612"/>
<stop offset="0.881951" stop-color="#FFDD00"/>
</linearGradient>
</defs>
</svg>
