<svg width="175" height="100" viewBox="0 0 175 100" fill="none" xmlns="http://www.w3.org/2000/svg">
<rect width="175" height="100" rx="6" fill="url(#paint0_linear_8565_228789)"/>
<path d="M59.3227 78.24C58.3627 78.24 57.556 78.1333 56.9027 77.92C56.2627 77.7067 55.7227 77.4133 55.2827 77.04C54.8427 76.6667 54.3893 76.1667 53.9227 75.54L55.8227 73.96C56.3693 74.72 56.896 75.26 57.4027 75.58C57.9227 75.8867 58.5627 76.04 59.3227 76.04C60.376 76.04 61.1427 75.8867 61.6227 75.58C62.1027 75.2733 62.3427 74.78 62.3427 74.1C62.3427 73.7533 62.2293 73.4733 62.0027 73.26C61.776 73.0333 61.3827 72.8267 60.8227 72.64C60.276 72.4533 59.456 72.2467 58.3627 72.02C57.0827 71.7533 56.1293 71.28 55.5027 70.6C54.8893 69.9067 54.5827 68.9867 54.5827 67.84C54.5827 67.0133 54.7893 66.2933 55.2027 65.68C55.6293 65.0667 56.2293 64.5933 57.0027 64.26C57.776 63.9267 58.676 63.76 59.7027 63.76C61.036 63.76 62.096 63.96 62.8827 64.36C63.6693 64.7467 64.3093 65.32 64.8027 66.08L62.9427 67.6C62.5293 67.1867 62.1827 66.8733 61.9027 66.66C61.636 66.4333 61.3293 66.26 60.9827 66.14C60.636 66.02 60.2093 65.96 59.7027 65.96C58.9427 65.96 58.3693 66.1267 57.9827 66.46C57.596 66.7933 57.4027 67.2733 57.4027 67.9C57.4027 68.4867 57.6493 68.92 58.1427 69.2C58.636 69.4667 59.2693 69.6867 60.0427 69.86C61.1893 70.1 62.1027 70.3467 62.7827 70.6C63.4627 70.8533 64.0293 71.26 64.4827 71.82C64.936 72.38 65.1627 73.1467 65.1627 74.12C65.1627 75.5067 64.676 76.54 63.7027 77.22C62.7427 77.9 61.2827 78.24 59.3227 78.24ZM75.6584 75.06C75.6584 75.42 75.7251 75.7133 75.8584 75.94C76.0051 76.1667 76.2584 76.4133 76.6184 76.68L74.8784 78.2C74.4384 77.9733 74.0918 77.7333 73.8384 77.48C73.5851 77.2267 73.3918 76.9267 73.2584 76.58C72.6451 77.6867 71.6918 78.24 70.3984 78.24C69.3451 78.24 68.5318 77.96 67.9584 77.4C67.3851 76.84 67.0984 76.04 67.0984 75V68.6H69.6984V74.76C69.6984 75.2133 69.8251 75.5733 70.0784 75.84C70.3451 76.1067 70.7051 76.24 71.1584 76.24C72.0384 76.24 72.6718 75.6667 73.0584 74.52V68.6H75.6584V75.06ZM86.3317 75.1C86.3317 75.46 86.3984 75.7533 86.5317 75.98C86.6784 76.2067 86.9317 76.4533 87.2917 76.72L85.5517 78.24C84.7917 77.8533 84.2717 77.3667 83.9917 76.78C83.6984 77.1933 83.2984 77.54 82.7917 77.82C82.2851 78.1 81.6584 78.24 80.9117 78.24C79.9651 78.24 79.2117 78 78.6517 77.52C78.0917 77.0267 77.8117 76.3333 77.8117 75.44C77.8117 74.64 78.0184 74.0267 78.4317 73.6C78.8584 73.16 79.3451 72.86 79.8917 72.7C80.4384 72.54 81.0451 72.4267 81.7117 72.36L82.6717 72.26C83.0584 72.22 83.3251 72.1533 83.4717 72.06C83.6317 71.9667 83.7184 71.8133 83.7317 71.6C83.7051 71.2 83.5717 70.86 83.3317 70.58C83.1051 70.3 82.6651 70.16 82.0117 70.16C81.5851 70.16 81.2117 70.24 80.8917 70.4C80.5717 70.56 80.2451 70.82 79.9117 71.18L78.1317 69.94C78.5184 69.4333 79.0051 69.0467 79.5917 68.78C80.1784 68.5 80.9851 68.36 82.0117 68.36C84.8917 68.36 86.3317 69.5267 86.3317 71.86V75.1ZM81.5717 76.38C82.2651 76.38 82.7984 76.2133 83.1717 75.88C83.5451 75.5333 83.7317 75.1133 83.7317 74.62V73.78C83.5184 73.86 83.1117 73.9333 82.5117 74L81.9117 74.06C81.4584 74.1 81.0784 74.2067 80.7717 74.38C80.4651 74.54 80.3117 74.8467 80.3117 75.3C80.3117 75.6467 80.4251 75.9133 80.6517 76.1C80.8784 76.2867 81.1851 76.38 81.5717 76.38ZM86.1117 62.68H88.6317L86.7517 65.2H84.8517L86.1117 62.68ZM78.9517 67.3C79.2984 66.98 79.7117 66.52 80.1917 65.92C80.6851 65.32 81.0917 64.72 81.4117 64.12H83.6117C83.9317 64.72 84.3317 65.32 84.8117 65.92C85.3051 66.52 85.7251 66.98 86.0717 67.3H83.7917C83.2584 66.8333 82.8317 66.34 82.5117 65.82C82.1917 66.34 81.7651 66.8333 81.2317 67.3H78.9517ZM91.3038 70.6V74.48C91.3038 75.04 91.3904 75.4333 91.5638 75.66C91.7371 75.8867 92.0304 76 92.4438 76H94.0238V78H92.4438C91.5104 78 90.7704 77.8867 90.2238 77.66C89.6904 77.4333 89.3038 77.0667 89.0638 76.56C88.8238 76.0533 88.7038 75.36 88.7038 74.48V67.14C88.7038 66.78 88.6304 66.4867 88.4838 66.26C88.3504 66.0333 88.1038 65.7867 87.7438 65.52L89.4838 64C90.1638 64.3467 90.6371 64.7467 90.9038 65.2C91.1704 65.64 91.3038 66.26 91.3038 67.06V68.6H94.0238V70.6H91.3038ZM109.554 75.1C109.554 75.46 109.621 75.7533 109.754 75.98C109.901 76.2067 110.154 76.4533 110.514 76.72L108.774 78.24C108.014 77.8533 107.494 77.3667 107.214 76.78C106.921 77.1933 106.521 77.54 106.014 77.82C105.508 78.1 104.881 78.24 104.134 78.24C103.188 78.24 102.434 78 101.874 77.52C101.314 77.0267 101.034 76.3333 101.034 75.44C101.034 74.64 101.241 74.0267 101.654 73.6C102.081 73.16 102.568 72.86 103.114 72.7C103.661 72.54 104.268 72.4267 104.934 72.36L105.894 72.26C106.281 72.22 106.548 72.1533 106.694 72.06C106.854 71.9667 106.941 71.8133 106.954 71.6C106.928 71.2 106.794 70.86 106.554 70.58C106.328 70.3 105.888 70.16 105.234 70.16C104.808 70.16 104.434 70.24 104.114 70.4C103.794 70.56 103.468 70.82 103.134 71.18L101.354 69.94C101.741 69.4333 102.228 69.0467 102.814 68.78C103.401 68.5 104.208 68.36 105.234 68.36C108.114 68.36 109.554 69.5267 109.554 71.86V75.1ZM104.794 76.38C105.488 76.38 106.021 76.2133 106.394 75.88C106.768 75.5333 106.954 75.1133 106.954 74.62V73.78C106.741 73.86 106.334 73.9333 105.734 74L105.134 74.06C104.681 74.1 104.301 74.2067 103.994 74.38C103.688 74.54 103.534 74.8467 103.534 75.3C103.534 75.6467 103.648 75.9133 103.874 76.1C104.101 76.2867 104.408 76.38 104.794 76.38ZM105.754 67.5C104.728 67.5 103.914 67.2 103.314 66.6C102.714 65.9867 102.414 65.1733 102.414 64.16H104.274C104.314 64.64 104.461 65.02 104.714 65.3C104.968 65.5667 105.314 65.7 105.754 65.7C106.194 65.7 106.541 65.56 106.794 65.28C107.061 65 107.208 64.6267 107.234 64.16H109.094C109.094 65.1733 108.788 65.9867 108.174 66.6C107.574 67.2 106.768 67.5 105.754 67.5ZM117.384 68.36C118.411 68.36 119.197 68.64 119.744 69.2C120.304 69.76 120.584 70.56 120.584 71.6V78H117.984V71.84C117.984 71.3867 117.857 71.0267 117.604 70.76C117.364 70.4933 117.037 70.36 116.624 70.36C115.744 70.36 115.111 70.88 114.724 71.92V78H112.124V71.5C112.124 71.14 112.051 70.8467 111.904 70.62C111.771 70.3933 111.524 70.1467 111.164 69.88L112.904 68.36C113.331 68.5733 113.664 68.8 113.904 69.04C114.157 69.28 114.351 69.56 114.484 69.88C114.764 69.4267 115.137 69.06 115.604 68.78C116.084 68.5 116.677 68.36 117.384 68.36Z" fill="#474747"/>
<path d="M93.5326 27.5334H93.5379H93.5326ZM100.039 25.6668H94.7278L95.2481 23.5867L97.4834 22.8255C97.9588 22.6639 98.2417 22.1588 98.1046 21.6758C98.0697 21.5543 98.0106 21.4411 97.9306 21.3432C97.8507 21.2453 97.7517 21.1646 97.6397 21.1061C97.5277 21.0475 97.4049 21.0124 97.2789 21.0027C97.1528 20.9931 97.0261 21.0091 96.9065 21.0499L94.1649 21.9832C94.0173 22.0335 93.8846 22.1201 93.7791 22.2349C93.6735 22.3498 93.5984 22.4892 93.5606 22.6406L92.8041 25.6668H85.1592C84.6569 25.6668 84.2259 26.053 84.2008 26.5552C84.1947 26.6814 84.2143 26.8075 84.2584 26.9259C84.3025 27.0443 84.3702 27.1525 84.4573 27.2439C84.5445 27.3354 84.6493 27.4082 84.7654 27.458C84.8816 27.5077 85.0066 27.5334 85.1329 27.5334H85.2933L85.3517 28.0386C85.3654 28.1565 85.422 28.2653 85.5107 28.3443C85.5995 28.4232 85.7141 28.4668 85.8329 28.4667C88.1078 28.4667 90.1296 29.1025 91.673 30.3053C92.5315 30.9668 93.2274 31.8157 93.7076 32.7873C93.9764 33.3338 94.1748 33.9122 94.2979 34.5087C94.3224 34.6249 94.3913 34.727 94.4898 34.7933C95.2833 35.3317 95.8687 36.1255 96.1486 37.0426C96.4286 37.9598 96.3862 38.9451 96.0286 39.8349C95.987 39.9379 95.9839 40.0524 96.0199 40.1575C96.2265 40.7497 96.3322 41.3723 96.3325 41.9996C96.3325 43.3027 95.8892 44.5446 95.0842 45.4965C94.6279 46.0398 94.0538 46.4721 93.4055 46.7606C93.2933 46.81 93.2051 46.9015 93.1599 47.0155C92.9176 47.6466 92.5755 48.2347 92.1467 48.7572C92.1288 48.7784 92.1174 48.8043 92.1137 48.8318C92.11 48.8592 92.1142 48.8872 92.1259 48.9123C92.1375 48.9375 92.1561 48.9588 92.1794 48.9738C92.2027 48.9888 92.2298 48.9968 92.2575 48.997H95.128C95.8308 48.9941 96.507 48.7282 97.0236 48.2517C97.5402 47.7752 97.8597 47.1225 97.9191 46.4222L99.9141 27.5334H100.066C100.192 27.5336 100.317 27.508 100.434 27.4583C100.55 27.4086 100.655 27.3358 100.742 27.2444C100.829 27.1529 100.897 27.0446 100.941 26.9262C100.985 26.8077 101.005 26.6815 100.999 26.5552C100.975 26.053 100.542 25.6668 100.039 25.6668Z" fill="black"/>
<path d="M78.4067 38.7327C78.5908 38.7318 78.7732 38.7675 78.9434 38.8376C79.1136 38.9077 79.2683 39.0108 79.3984 39.141L80.3031 40.0457C80.3247 40.0674 80.3505 40.0846 80.3788 40.0964C80.4071 40.1081 80.4375 40.1142 80.4682 40.1142C80.4988 40.1142 80.5292 40.1081 80.5575 40.0964C80.5858 40.0846 80.6116 40.0674 80.6332 40.0457L81.5362 39.141C81.6663 39.0108 81.8209 38.9077 81.9911 38.8376C82.1613 38.7675 82.3438 38.7318 82.5278 38.7327H93.9946C94.0559 38.7333 94.1167 38.7219 94.1735 38.699C94.2304 38.6761 94.2822 38.6422 94.3259 38.5993C94.3697 38.5564 94.4046 38.5053 94.4286 38.449C94.4526 38.3926 94.4653 38.332 94.4659 38.2707V38.2661C94.4652 37.7284 94.2792 37.2074 93.9392 36.7908C93.5992 36.3743 93.126 36.0878 92.5993 35.9795C92.5515 34.2476 91.841 32.7981 90.528 31.7796C89.3135 30.8323 87.6907 30.333 85.8329 30.333H81.633C77.6537 30.333 74.9582 32.5945 74.8666 35.9795C74.3399 36.0878 73.8667 36.3743 73.5267 36.7908C73.1867 37.2074 73.0007 37.7284 73 38.2661C73 38.3898 73.0492 38.5085 73.1367 38.596C73.2242 38.6835 73.3429 38.7327 73.4667 38.7327H78.4067ZM82.9128 40.5993C82.8515 40.5993 82.7908 40.6113 82.7342 40.6347C82.6775 40.6581 82.626 40.6925 82.5827 40.7358L81.2912 42.0278C81.0724 42.2465 80.7757 42.3694 80.4664 42.3694C80.1571 42.3694 79.8604 42.2465 79.6416 42.0278L78.3501 40.7358C78.3068 40.6925 78.2553 40.6581 78.1986 40.6347C78.142 40.6113 78.0813 40.5993 78.02 40.5993H73.9718C73.7526 40.5983 73.54 40.6749 73.3718 40.8155C73.2036 40.9561 73.0905 41.1516 73.0525 41.3675C73.0175 41.5763 72.9999 41.7876 73 41.9993C73 43.7836 74.2325 45.2372 75.7567 45.2658C75.8985 46.1478 76.2415 46.9446 76.7577 47.5681C77.5213 48.4904 78.6313 48.999 79.8831 48.999H87.5828C88.8346 48.999 89.9446 48.4904 90.7082 47.567C91.2244 46.9434 91.5674 46.1466 91.7092 45.2646C93.2334 45.2372 94.4659 43.7836 94.4659 41.9981C94.466 41.7864 94.4484 41.5751 94.4134 41.3664C94.3752 41.1507 94.262 40.9554 94.0938 40.815C93.9256 40.6747 93.7132 40.5983 93.4941 40.5993H82.9128Z" fill="black"/>
<defs>
<linearGradient id="paint0_linear_8565_228789" x1="-63.4804" y1="50" x2="55.9172" y2="-69.2401" gradientUnits="userSpaceOnUse">
<stop stop-color="#F9A51A"/>
<stop offset="0.267357" stop-color="#FBB612"/>
<stop offset="0.881951" stop-color="#FFDD00"/>
</linearGradient>
</defs>
</svg>
