<svg width="175" height="100" viewBox="0 0 175 100" fill="none" xmlns="http://www.w3.org/2000/svg">
<rect width="175" height="100" rx="6" fill="url(#paint0_linear_8565_228788)"/>
<path d="M96.612 51.9992H81.1719C80.6078 51.9992 80.1482 51.5719 80.1482 51.0392V50.6704C80.1482 50.1435 80.6078 49.7104 81.1719 49.7104H86.6181C86.7852 49.6226 87.036 49.0079 87.036 48.6977V47.761C87.036 47.5562 86.8549 47.3864 86.639 47.3864H80.0646L79.9949 47.1405C78.4488 41.5209 73.0444 27.6298 73.0444 27.6298L73.0375 27.6064C72.9887 27.3547 72.9887 27.0971 73.0305 26.8454L73.3996 20.5409C73.4693 19.3116 74.5975 18.3164 75.9138 18.3164C76.5545 18.3164 77.1535 18.5506 77.5853 18.9837C78.017 19.4111 78.2399 19.9789 78.2051 20.5818L77.836 26.9508L83.4771 34.6544H79.9671C79.6885 34.6544 79.4656 34.8651 79.4656 35.1227V36.6974C79.4656 36.9549 79.6885 37.1657 79.9671 37.1657H80.775C80.8307 36.9783 80.9351 36.8086 81.0884 36.6739C81.3112 36.4632 81.6107 36.3461 81.931 36.3461H84.2502L86.7086 41.7316C86.7295 41.7726 86.7783 41.796 86.8201 41.7843C92.7538 40.4087 94.9127 40.4438 97.1971 40.4789C97.5522 40.4848 97.9144 40.4906 98.2905 40.4906C99.6903 40.4906 100.533 40.754 100.86 41.2867C101.104 41.6848 100.979 42.118 100.86 42.3112L98.4158 46.6254C98.1512 47.0937 97.6289 47.3864 97.0578 47.3864H90.5112C90.2884 47.3864 90.1142 47.5562 90.1142 47.761V48.6977C90.1142 49.0079 90.365 49.6167 90.5321 49.7104H96.612C97.1762 49.7104 97.6358 50.1377 97.6358 50.6704V51.0392C97.6358 51.5719 97.1762 51.9992 96.612 51.9992Z" fill="black"/>
<path d="M92.0715 29.9076C89.0002 29.9076 86.5 27.572 86.5 24.6978V22.2099C86.5 19.3357 89.0002 17 92.0715 17C95.1428 17 97.6431 19.3357 97.6431 22.2099V24.7036C97.6431 27.572 95.1428 29.9076 92.0715 29.9076Z" fill="black"/>
<path d="M93.4157 37.8216H93.367L90.3165 36.9962H81.9314C81.7991 36.9962 81.6737 37.043 81.5762 37.1367C81.4787 37.2245 81.4299 37.3416 81.4299 37.4703C81.4299 37.6635 81.2628 37.8216 81.0539 37.8216H79.9674C79.3058 37.8216 78.7695 37.3181 78.7695 36.7035V35.1288C78.7695 34.5142 79.3058 34.0107 79.9674 34.0107H93.4157C94.0773 34.0107 94.6136 34.5142 94.6136 35.1288V36.7035C94.6136 37.3181 94.0704 37.8216 93.4157 37.8216Z" fill="black"/>
<path d="M54.6124 78.24C52.7324 78.24 51.2991 77.8133 50.3124 76.96C49.3258 76.0933 48.8324 74.82 48.8324 73.14V68.86C48.8324 67.18 49.3258 65.9133 50.3124 65.06C51.2991 64.1933 52.7324 63.76 54.6124 63.76C55.9191 63.76 56.9858 63.98 57.8124 64.42C58.6524 64.8467 59.3191 65.4933 59.8124 66.36L57.7924 67.76C57.3791 67.12 56.9458 66.66 56.4924 66.38C56.0524 66.1 55.4258 65.96 54.6124 65.96C53.5858 65.96 52.8324 66.2067 52.3524 66.7C51.8858 67.18 51.6524 67.9 51.6524 68.86V73.14C51.6524 74.1 51.8858 74.8267 52.3524 75.32C52.8324 75.8 53.5858 76.04 54.6124 76.04C55.4924 76.04 56.1724 75.8933 56.6524 75.6C57.1458 75.2933 57.5858 74.8067 57.9724 74.14L59.9724 75.62C59.5458 76.2333 59.1058 76.7267 58.6524 77.1C58.1991 77.4733 57.6458 77.76 56.9924 77.96C56.3524 78.1467 55.5591 78.24 54.6124 78.24ZM67.1868 68.36C68.2135 68.36 69.0001 68.64 69.5468 69.2C70.1068 69.76 70.3868 70.56 70.3868 71.6V78H67.7868V71.84C67.7868 71.3867 67.6601 71.0267 67.4068 70.76C67.1668 70.4933 66.8401 70.36 66.4268 70.36C65.5468 70.36 64.9135 70.88 64.5268 71.92V78H61.9268V66.14C61.9268 65.78 61.8535 65.4867 61.7068 65.26C61.5735 65.0333 61.3268 64.7867 60.9668 64.52L62.7068 63C63.3868 63.3467 63.8601 63.7467 64.1268 64.2C64.3935 64.64 64.5268 65.26 64.5268 66.06V69.54C65.1401 68.7533 66.0268 68.36 67.1868 68.36ZM76.8001 78.24C75.4134 78.24 74.3467 77.92 73.6001 77.28C72.8534 76.64 72.4801 75.7267 72.4801 74.54V72.06C72.4801 70.8733 72.8534 69.96 73.6001 69.32C74.3467 68.68 75.4134 68.36 76.8001 68.36C78.1867 68.36 79.2534 68.68 80.0001 69.32C80.7467 69.96 81.1201 70.8733 81.1201 72.06V74.54C81.1201 75.7267 80.7467 76.64 80.0001 77.28C79.2534 77.92 78.1867 78.24 76.8001 78.24ZM76.8001 76.24C77.3467 76.24 77.7667 76.0933 78.0601 75.8C78.3667 75.5067 78.5201 75.0867 78.5201 74.54V72.06C78.5201 71.5133 78.3667 71.0933 78.0601 70.8C77.7667 70.5067 77.3467 70.36 76.8001 70.36C76.2534 70.36 75.8267 70.5067 75.5201 70.8C75.2267 71.0933 75.0801 71.5133 75.0801 72.06V74.54C75.0801 75.0867 75.2267 75.5067 75.5201 75.8C75.8267 76.0933 76.2534 76.24 76.8001 76.24ZM73.5401 63.46C73.5667 62.78 73.7734 62.2067 74.1601 61.74C74.5601 61.2733 75.1001 61.04 75.7801 61.04C76.0201 61.04 76.2401 61.0733 76.4401 61.14C76.6534 61.2067 76.8867 61.3 77.1401 61.42C77.5134 61.6067 77.8001 61.7 78.0001 61.7C78.1201 61.7 78.2334 61.6333 78.3401 61.5C78.4467 61.3533 78.5134 61.1467 78.5401 60.88H80.0601C79.9934 61.5467 79.7734 62.12 79.4001 62.6C79.0267 63.0667 78.5601 63.3 78.0001 63.3C77.7601 63.3 77.5334 63.2667 77.3201 63.2C77.1201 63.1333 76.8934 63.04 76.6401 62.92C76.2667 62.7333 75.9801 62.64 75.7801 62.64C75.6201 62.64 75.4734 62.7067 75.3401 62.84C75.2067 62.9733 75.1134 63.18 75.0601 63.46H73.5401ZM73.2201 67.3C73.5667 66.98 73.9801 66.52 74.4601 65.92C74.9534 65.32 75.3601 64.72 75.6801 64.12H77.8801C78.2001 64.72 78.6001 65.32 79.0801 65.92C79.5734 66.52 79.9934 66.98 80.3401 67.3H78.0601C77.5267 66.8333 77.1001 66.34 76.7801 65.82C76.4601 66.34 76.0334 66.8333 75.5001 67.3H73.2201ZM94.3548 68.36C95.3814 68.36 96.1681 68.64 96.7148 69.2C97.2748 69.76 97.5548 70.56 97.5548 71.6V78H94.9548V71.84C94.9548 71.3867 94.8281 71.0267 94.5748 70.76C94.3348 70.4933 94.0081 70.36 93.5948 70.36C92.7148 70.36 92.0814 70.88 91.6948 71.92V78H89.0948V71.5C89.0948 71.14 89.0214 70.8467 88.8748 70.62C88.7414 70.3933 88.4948 70.1467 88.1348 69.88L89.8748 68.36C90.3014 68.5733 90.6348 68.8 90.8748 69.04C91.1281 69.28 91.3214 69.56 91.4548 69.88C91.7348 69.4267 92.1081 69.06 92.5748 68.78C93.0548 68.5 93.6481 68.36 94.3548 68.36ZM109.913 69.88C109.553 70.1467 109.299 70.3933 109.153 70.62C109.019 70.8467 108.953 71.14 108.953 71.5V78.28C108.953 79.5867 108.593 80.5333 107.873 81.12C107.166 81.7067 106.013 82 104.413 82H101.773V80H104.413C105.093 80 105.586 79.8667 105.893 79.6C106.199 79.3333 106.353 78.8933 106.353 78.28V76.78C106.046 77.18 105.673 77.4867 105.233 77.7C104.806 77.9 104.213 78 103.453 78C102.199 78 101.199 77.5867 100.453 76.76C99.7194 75.92 99.3527 74.7933 99.3527 73.38V72.98C99.3527 72.14 99.5061 71.3733 99.8127 70.68C100.119 69.9733 100.579 69.4133 101.193 69C101.819 68.5733 102.573 68.36 103.453 68.36C104.813 68.36 105.846 68.9 106.553 69.98C106.673 69.6333 106.859 69.3333 107.113 69.08C107.379 68.8267 107.733 68.5867 108.173 68.36L109.913 69.88ZM104.213 76C105.333 76 106.046 75.4533 106.353 74.36V72C106.046 70.9067 105.333 70.36 104.213 70.36C103.493 70.36 102.933 70.62 102.533 71.14C102.146 71.6467 101.953 72.26 101.953 72.98V73.38C101.953 74.1133 102.146 74.7333 102.533 75.24C102.919 75.7467 103.479 76 104.213 76ZM115.433 78.24C114.046 78.24 112.98 77.92 112.233 77.28C111.486 76.64 111.113 75.7267 111.113 74.54V72.06C111.113 70.8733 111.486 69.96 112.233 69.32C112.98 68.68 114.046 68.36 115.433 68.36C116.82 68.36 117.886 68.68 118.633 69.32C119.38 69.96 119.753 70.8733 119.753 72.06V74.54C119.753 75.7267 119.38 76.64 118.633 77.28C117.886 77.92 116.82 78.24 115.433 78.24ZM115.433 76.24C115.98 76.24 116.4 76.0933 116.693 75.8C117 75.5067 117.153 75.0867 117.153 74.54V72.06C117.153 71.5133 117 71.0933 116.693 70.8C116.4 70.5067 115.98 70.36 115.433 70.36C114.886 70.36 114.46 70.5067 114.153 70.8C113.86 71.0933 113.713 71.5133 113.713 72.06V74.54C113.713 75.0867 113.86 75.5067 114.153 75.8C114.46 76.0933 114.886 76.24 115.433 76.24ZM116.653 62.68H119.173L120.433 65.2H118.533L116.653 62.68ZM111.853 67.3C112.2 66.98 112.613 66.52 113.093 65.92C113.586 65.32 113.993 64.72 114.313 64.12H116.513C116.833 64.72 117.233 65.32 117.713 65.92C118.206 66.52 118.626 66.98 118.973 67.3H116.693C116.16 66.8333 115.733 66.34 115.413 65.82C115.093 66.34 114.666 66.8333 114.133 67.3H111.853ZM123.402 67.34C122.989 67.34 122.635 67.1933 122.342 66.9C122.049 66.6067 121.902 66.2533 121.902 65.84C121.902 65.44 122.049 65.0933 122.342 64.8C122.635 64.4933 122.989 64.34 123.402 64.34C123.802 64.34 124.149 64.4933 124.442 64.8C124.749 65.0933 124.902 65.44 124.902 65.84C124.902 66.2533 124.749 66.6067 124.442 66.9C124.149 67.1933 123.802 67.34 123.402 67.34ZM123.922 78.24C123.242 77.8933 122.769 77.5 122.502 77.06C122.235 76.6067 122.102 75.98 122.102 75.18V68.6H124.702V75.1C124.702 75.46 124.769 75.7533 124.902 75.98C125.049 76.2067 125.302 76.4533 125.662 76.72L123.922 78.24Z" fill="#474747"/>
<defs>
<linearGradient id="paint0_linear_8565_228788" x1="-63.4804" y1="50" x2="55.9172" y2="-69.2401" gradientUnits="userSpaceOnUse">
<stop stop-color="#F9A51A"/>
<stop offset="0.267357" stop-color="#FBB612"/>
<stop offset="0.881951" stop-color="#FFDD00"/>
</linearGradient>
</defs>
</svg>
