<svg width="90" height="24" viewBox="0 0 59 16" fill="none" xmlns="http://www.w3.org/2000/svg">
<g clip-path="url(#clip0_4987_212)">
<path d="M0.294678 11.1255L1.35136 9.37618C2.07241 9.88615 3.16227 10.4465 4.63755 10.4465C5.97912 10.4465 6.90116 9.97115 6.90116 8.95218C6.90116 7.86502 5.77815 7.55962 4.53703 7.16924C2.12217 6.38749 1.03231 5.7599 1.03231 3.60237C1.03231 1.10389 2.92713 0.169922 5.19077 0.169922C6.74993 0.169922 7.99102 0.611702 8.84673 1.15528L7.79004 2.87101C7.20266 2.51423 6.39869 2.22564 5.44249 2.22564C4.48629 2.22564 3.5145 2.49743 3.5145 3.53318C3.5145 4.56896 4.55461 4.87534 5.77815 5.23212C8.07495 5.91209 9.39995 6.67606 9.39995 8.81581C9.39995 11.4141 7.40463 12.5358 4.80536 12.5358C2.75931 12.5358 1.26745 11.8391 0.294678 11.1265V11.1255Z" fill="url(#paint0_linear_4987_212)"/>
<path d="M19.1082 12.2977H16.5929L14.2453 9.37625L14.7312 8.42547C15.704 8.42547 16.6426 7.9155 16.6426 6.87972C16.6426 6.21756 16.2406 5.74216 15.5527 5.74216C13.5906 5.74216 13.4062 9.53044 13.4062 12.2987H11.126V0H13.4062V3.97503L13.0872 6.59116C13.6404 4.94359 14.6132 3.73784 16.3236 3.73784C17.833 3.73784 19.0067 4.68863 19.0067 6.42116C19.0067 8.30688 17.5813 9.01947 16.6426 9.22403L19.1073 12.2987L19.1082 12.2977Z" fill="url(#paint1_linear_4987_212)"/>
<path d="M28.4984 11.8977C28.4984 14.7006 26.4699 16.025 23.7867 16.025C22.3114 16.025 21.3221 15.6178 20.7688 15.3282L21.4567 13.6638C22.0607 13.9524 22.8149 14.1392 23.6364 14.1392C24.9614 14.1392 26.0845 13.6293 26.2523 11.8967L26.4035 10.3174C25.8669 11.6595 24.9614 12.5599 23.5028 12.5599C21.6753 12.5599 20.5347 11.1673 20.5347 9.14622V4H22.8491V8.51762C22.8491 9.63841 23.1681 10.7087 24.2072 10.7087C26.1352 10.7087 26.2026 7.04009 26.2026 4H28.4994V11.8977H28.4984Z" fill="url(#paint2_linear_4987_212)"/>
<path d="M39.5317 4.17856C39.5317 6.64146 37.9385 8.2554 34.5683 8.2554C34.2326 8.2554 33.8471 8.23862 33.4451 8.22181V12.2987H31.0304V0.424911C32.0364 0.323111 33.5456 0.169922 34.5683 0.169922C37.9385 0.169922 39.5317 1.71566 39.5317 4.17856ZM37.0494 4.17856C37.0494 2.80282 36.1107 2.05565 34.2326 2.05565C33.9974 2.05565 33.7292 2.05565 33.4442 2.07245V6.3529C33.7292 6.36968 33.9974 6.36968 34.2326 6.36968C36.1107 6.36968 37.0494 5.55431 37.0494 4.17856Z" fill="url(#paint3_linear_4987_212)"/>
<path d="M48.5364 5.12986V12.2972H46.2395L46.4747 9.9193C45.8873 11.4314 44.9322 12.5354 43.3729 12.5354C41.3271 12.5354 40.2369 10.7179 40.2369 8.56033C40.2369 5.87705 41.8802 3.73633 44.9652 3.73633C46.2563 3.73633 47.4805 4.10992 48.5374 5.12886L48.5364 5.12986ZM46.2221 5.79205C45.9206 5.62205 45.5009 5.52027 45.0318 5.52027C43.2373 5.52027 42.6169 7.09961 42.6169 8.56033C42.6169 9.86789 43.1026 10.6833 43.9584 10.6833C45.5684 10.6833 46.0883 8.01677 46.2221 5.79105V5.79205Z" fill="url(#paint4_linear_4987_212)"/>
<path d="M58.4963 11.8723C58.4963 14.6752 56.4679 15.9996 53.7846 15.9996C52.3096 15.9996 51.3199 15.5924 50.7668 15.3028L51.4547 13.6385C52.0588 13.927 52.813 14.1139 53.6343 14.1139C54.9593 14.1139 56.0824 13.6039 56.2504 11.8713L56.4016 10.292C55.865 11.6341 54.9593 12.5345 53.5008 12.5345C51.6734 12.5345 50.5328 11.142 50.5328 9.12083V3.97461H52.8472V8.49227C52.8472 9.61302 53.1661 10.6834 54.2052 10.6834C56.1332 10.6834 56.2007 7.0147 56.2007 3.97461H58.4973V11.8723H58.4963Z" fill="url(#paint5_linear_4987_212)"/>
</g>
<defs>
<linearGradient id="paint0_linear_4987_212" x1="4.8473" y1="0.169922" x2="4.8473" y2="12.5358" gradientUnits="userSpaceOnUse">
<stop stop-color="#CE332D"/>
<stop offset="1" stop-color="#9A221D"/>
</linearGradient>
<linearGradient id="paint1_linear_4987_212" x1="15.1171" y1="0" x2="15.1171" y2="12.2987" gradientUnits="userSpaceOnUse">
<stop stop-color="#CE332D"/>
<stop offset="1" stop-color="#9A221D"/>
</linearGradient>
<linearGradient id="paint2_linear_4987_212" x1="24.517" y1="4" x2="24.517" y2="16.025" gradientUnits="userSpaceOnUse">
<stop stop-color="#CE332D"/>
<stop offset="1" stop-color="#9A221D"/>
</linearGradient>
<linearGradient id="paint3_linear_4987_212" x1="35.281" y1="0.169922" x2="35.281" y2="12.2986" gradientUnits="userSpaceOnUse">
<stop stop-color="#EDB920"/>
<stop offset="1" stop-color="#ECA105"/>
</linearGradient>
<linearGradient id="paint4_linear_4987_212" x1="44.3872" y1="3.73633" x2="44.3872" y2="12.5354" gradientUnits="userSpaceOnUse">
<stop stop-color="#EDB920"/>
<stop offset="1" stop-color="#ECA105"/>
</linearGradient>
<linearGradient id="paint5_linear_4987_212" x1="54.5151" y1="3.97461" x2="54.5151" y2="15.9996" gradientUnits="userSpaceOnUse">
<stop stop-color="#EDB920"/>
<stop offset="1" stop-color="#ECA105"/>
</linearGradient>
<clipPath id="clip0_4987_212">
<rect width="58.24" height="16" fill="white" transform="translate(0.280029)"/>
</clipPath>
</defs>
</svg>
