<svg width="80" height="24" viewBox="0 0 54 16" fill="none" xmlns="http://www.w3.org/2000/svg">
<g clip-path="url(#clip0_4987_186)">
<path d="M51.4127 12.3978C51.1348 13.3284 50.2641 14.0091 49.2341 14.0091C48.204 14.0091 47.3333 13.3284 47.0554 12.3978L45.3179 13.4342C45.9718 14.9423 47.4812 16.0003 49.2341 16.0003C50.9869 16.0003 52.4963 14.9423 53.1502 13.4329L51.4127 12.3965V12.3978Z" fill="url(#paint0_radial_4987_186)"/>
<path d="M5.9623 11.565H0.996958V9.57374H5.9623C6.69913 9.57374 7.29829 8.97458 7.29829 8.23775C7.29829 7.55573 6.78709 6.9859 6.11018 6.91068L3.60137 6.63278C1.91226 6.44666 0.640015 5.02526 0.640015 3.32722C0.640015 1.49279 2.1328 0 3.96724 0H8.59221V1.99124H3.96724C3.23041 1.99124 2.63125 2.59039 2.63125 3.32722C2.63125 4.00924 3.14244 4.57908 3.81936 4.65429L6.32817 4.9322C8.016 5.11959 9.28825 6.54099 9.28825 8.23902C9.28825 10.0735 7.79546 11.5662 5.96103 11.5662L5.9623 11.565Z" fill="url(#paint1_linear_4987_186)"/>
<path d="M17.3093 4.36236V3.29408H15.3181V4.36236C15.3181 5.50458 14.3887 6.43391 13.2465 6.43391H12.0635V0H10.0723V11.565H12.0635V8.42515H13.2465C13.2465 8.42515 13.2465 8.42515 13.2478 8.42515C14.39 8.42515 15.3181 9.35447 15.3181 10.4967V11.565H17.3093V10.4967C17.3093 9.27289 16.765 8.17528 15.9057 7.42953C16.7637 6.68377 17.3093 5.58617 17.3093 4.36236Z" fill="url(#paint2_linear_4987_186)"/>
<path d="M24.0326 3.29395V7.51735C24.0326 8.63408 23.1237 9.54301 22.0069 9.54301C20.8902 9.54301 19.9813 8.63408 19.9813 7.51735V3.29395H17.9901V7.51735C17.9901 9.73168 19.7913 11.5342 22.0069 11.5342C22.7451 11.5342 23.4373 11.3328 24.0326 10.9835V11.9791C24.0326 13.0959 23.1237 14.0048 22.0069 14.0048C20.6569 14.0048 19.9622 12.9416 19.6728 12.3272L17.9569 13.3508C18.8008 15.017 20.2847 15.996 22.0069 15.996C24.2213 15.996 26.0238 14.1948 26.0238 11.9791V3.29395H24.0326Z" fill="url(#paint3_linear_4987_186)"/>
<path d="M51.2597 3.29395V7.51735C51.2597 8.63408 50.3508 9.54301 49.2341 9.54301C48.1173 9.54301 47.2084 8.63408 47.2084 7.51735V3.29395H45.2172V7.51735C45.2172 9.73168 47.0185 11.5342 49.2341 11.5342C51.4497 11.5342 53.2509 9.73295 53.2509 7.51735V3.29395H51.2597Z" fill="url(#paint4_linear_4987_186)"/>
<path d="M40.3819 11.5335C38.0426 11.5335 36.1381 9.63023 36.1381 7.2897C36.1381 4.94917 38.0413 3.0459 40.3819 3.0459C42.7224 3.0459 44.6257 4.94917 44.6257 7.2897C44.6257 9.63023 42.7224 11.5335 40.3819 11.5335ZM40.3819 5.03841C39.1402 5.03841 38.1293 6.04805 38.1293 7.29098C38.1293 8.53391 39.1389 9.54355 40.3819 9.54355C41.6248 9.54355 42.6344 8.53391 42.6344 7.29098C42.6344 6.04805 41.6248 5.03841 40.3819 5.03841Z" fill="url(#paint5_linear_4987_186)"/>
<path d="M33.5554 0V7.51749C33.5554 8.63421 32.6464 9.54314 31.5297 9.54314C30.3199 9.54314 29.1764 8.559 29.1764 7.51749V7.05474H27.1852V7.51749C27.1852 9.6566 29.2159 11.5344 31.5297 11.5344C33.8435 11.5344 35.5466 9.73309 35.5466 7.51749V0H33.5554Z" fill="url(#paint6_linear_4987_186)"/>
</g>
<defs>
<radialGradient id="paint0_radial_4987_186" cx="0" cy="0" r="1" gradientUnits="userSpaceOnUse" gradientTransform="translate(49.1987 12.283) rotate(90) scale(3.13091 3.56923)">
<stop offset="0.04" stop-color="#EACE00"/>
<stop offset="1" stop-color="#EA9F00"/>
</radialGradient>
<linearGradient id="paint1_linear_4987_186" x1="4.96413" y1="6.90176" x2="4.96413" y2="19.0378" gradientUnits="userSpaceOnUse">
<stop stop-color="#CF332D"/>
<stop offset="1" stop-color="#811914"/>
</linearGradient>
<linearGradient id="paint2_linear_4987_186" x1="13.6914" y1="6.90176" x2="13.6914" y2="19.0378" gradientUnits="userSpaceOnUse">
<stop stop-color="#CF332D"/>
<stop offset="1" stop-color="#811914"/>
</linearGradient>
<linearGradient id="paint3_linear_4987_186" x1="21.9904" y1="6.90163" x2="21.9904" y2="19.0377" gradientUnits="userSpaceOnUse">
<stop stop-color="#CF332D"/>
<stop offset="1" stop-color="#811914"/>
</linearGradient>
<linearGradient id="paint4_linear_4987_186" x1="49.2341" y1="6.90163" x2="49.2341" y2="19.0377" gradientUnits="userSpaceOnUse">
<stop stop-color="#CF332D"/>
<stop offset="1" stop-color="#811914"/>
</linearGradient>
<linearGradient id="paint5_linear_4987_186" x1="40.3819" y1="6.90217" x2="40.3819" y2="19.0383" gradientUnits="userSpaceOnUse">
<stop stop-color="#CF332D"/>
<stop offset="1" stop-color="#811914"/>
</linearGradient>
<linearGradient id="paint6_linear_4987_186" x1="31.3665" y1="6.90176" x2="31.3665" y2="19.0378" gradientUnits="userSpaceOnUse">
<stop stop-color="#CF332D"/>
<stop offset="1" stop-color="#811914"/>
</linearGradient>
<clipPath id="clip0_4987_186">
<rect width="52.8" height="16" fill="white" transform="translate(0.47998)"/>
</clipPath>
</defs>
</svg>
