<svg width="140" height="24" viewBox="0 0 93 16" fill="none" xmlns="http://www.w3.org/2000/svg">
<g clip-path="url(#clip0_4987_196)">
<path d="M22.3603 8.00018H16.4833C16.4284 9.21871 16.9227 10.1194 18.4057 10.1194C19.4493 10.1194 20.4929 9.80151 21.0421 9.58959L21.3167 11.3379C20.4929 11.7088 19.2296 12.0266 17.7466 12.0266C15.22 12.0266 13.7371 10.6492 13.7371 8.31807C13.7371 6.8876 14.2314 5.29819 15.1102 4.18561C16.0439 2.86111 17.5269 2.06641 19.3395 2.06641C21.5364 2.06641 22.7998 3.28495 22.7998 5.45713C22.7998 5.98693 22.635 7.15249 22.3603 8.00018ZM19.0099 3.70879C18.186 3.70879 17.4719 4.23859 16.9776 5.19223C16.7579 5.61607 16.7579 5.72203 16.5931 6.19885H20.0535C20.1084 5.93396 20.2183 5.45713 20.2183 5.13925C20.2731 4.18561 19.8338 3.70879 19.0099 3.70879Z" fill="#E12127"/>
<path d="M4.12481 14.6754H1.48839L0.280029 2.33105H3.13615L3.63048 10.7019L7.64003 2.33105H10.5511L4.12481 14.6754Z" fill="#E12127"/>
<path d="M28.6217 4.13269H27.0838L25.9853 9.16583C25.9304 9.32471 25.7656 10.1724 26.6993 10.2254C26.974 10.2254 27.3584 10.1724 27.5232 10.1194C27.5232 10.1194 27.0838 12.0797 25.0516 12.0797C23.5137 12.0797 22.7996 10.9671 23.1292 9.27175L24.9967 0.847918C24.9967 0.847918 26.0403 -0.264668 28.0176 0.0532128C27.688 1.64261 27.5232 2.33136 27.5232 2.33136H29.0612L28.6217 4.13269Z" fill="#E12127"/>
<path d="M47.7359 4.13219H46.198L45.0995 9.16528C45.0446 9.32424 44.8798 10.1719 45.8135 10.2249C46.0882 10.2249 46.4726 10.1719 46.6374 10.119C46.6374 10.119 46.198 12.0792 44.1658 12.0792C42.6278 12.0792 41.9138 10.9666 42.2434 9.27128L44.0559 0.953384C44.0559 0.953384 45.0995 -0.159199 47.0768 0.158682C46.7473 1.74809 46.5825 2.43682 46.5825 2.43682H48.1204L47.7359 4.13219Z" fill="#E12127"/>
<path d="M41.4742 8.00018H35.5971C35.5422 9.21871 36.0366 10.1194 37.5195 10.1194C38.5631 10.1194 39.6066 9.80151 40.1559 9.58959L40.4306 11.3379C39.6066 11.7088 38.3434 12.0266 36.8604 12.0266C34.3338 12.0266 32.9058 10.6492 32.9058 8.31807C32.9058 6.8876 33.4001 5.29819 34.224 4.18561C35.2126 2.86111 36.6407 2.06641 38.4533 2.06641C40.6502 2.06641 41.9135 3.28495 41.9135 5.45713C41.9135 5.98693 41.7488 7.15249 41.4742 8.00018ZM38.1237 3.70879C37.2998 3.70879 36.5858 4.23859 36.0914 5.19223C35.8718 5.61607 35.8718 5.72203 35.707 6.19885H39.1673C39.2222 5.93396 39.3321 5.45713 39.3321 5.13925C39.387 4.18561 38.8926 3.70879 38.1237 3.70879Z" fill="#E12127"/>
<path d="M68.4425 4.1328C67.7834 3.8679 67.0144 3.8679 66.5201 4.07982L64.8174 11.9209H61.9613L63.9935 2.86128C65.2019 2.22552 67.3989 1.85465 69.1015 2.17253L68.4425 4.1328Z" fill="#E12127"/>
<path d="M54.6009 14.6754L54.6558 11.9204H50.7561L49.1633 14.6754H46.3621L54.0517 2.33105H56.9627L57.457 14.6754H54.6009ZM54.7107 5.08602L51.7448 10.1721H54.6558L54.7107 5.08602Z" fill="#E12127"/>
<path d="M25.93 16.0002C23.4034 16.0002 21.9754 14.4108 22.1951 12.7154C23.4584 14.0929 25.8201 14.1459 27.1933 12.9273C27.6877 12.5035 28.127 11.8148 28.4565 10.1724C29.0608 7.36441 30.1593 2.27832 30.1593 2.27832H33.0154L31.0381 11.2849C30.4339 14.1988 28.5115 16.0002 25.93 16.0002Z" fill="#E12127"/>
<path d="M11.814 11.9204H9.01282L11.1 2.33105H13.9012L11.814 11.9204Z" fill="#E12127"/>
<path d="M60.698 11.9204H57.8418L59.929 2.33105H62.7851L60.698 11.9204Z" fill="#E12127"/>
<path d="M67.1788 12.0262C66.6845 12.0262 66.355 11.7084 66.355 11.2845C66.355 10.7017 66.9042 10.1719 67.5083 10.1719C68.0027 10.1719 68.3323 10.4898 68.3323 10.9136C68.3872 11.4964 67.783 12.0262 67.1788 12.0262Z" fill="#E12127"/>
<path d="M74.3196 6.19902C74.1548 6.09306 73.8802 5.93413 73.5506 5.93413C73.0014 5.93413 72.507 6.25201 72.1226 6.88777C71.7381 7.47055 71.5184 8.42415 71.5184 9.11295C71.5184 10.0136 71.9028 10.4374 72.507 10.4374C72.8915 10.4374 73.276 10.3315 73.4957 10.1726L73.6605 11.4441C73.3309 11.7619 72.6718 11.9738 71.793 11.9738C70.3649 11.9738 69.3214 10.9142 69.3214 9.21887C69.3214 8.15927 69.7608 6.88777 70.3649 6.04009C71.079 5.03346 72.1775 4.55664 73.2211 4.55664C74.0449 4.55664 74.759 4.87452 74.9787 5.08644L74.3196 6.19902Z" fill="#E12127"/>
<path d="M79.8668 10.4372C79.2077 11.3909 78.1092 12.0266 76.736 12.0266C74.9784 12.0266 74.0996 10.967 74.0996 9.37759C74.0996 8.31799 74.4841 7.04646 75.0883 6.19878C75.8023 5.19216 76.8459 4.60938 78.219 4.60938C79.9766 4.60938 80.9105 5.66897 80.9105 7.2054C80.9105 8.26503 80.4713 9.58951 79.8668 10.4372ZM78.0542 5.8809C77.505 5.8809 77.0656 6.30474 76.791 6.9405C76.4615 7.62925 76.1868 8.84775 76.1868 9.58951C76.1868 10.2253 76.3516 10.5962 76.9558 10.5962C77.5599 10.5962 77.9444 10.2253 78.219 9.58951C78.5486 8.90079 78.8232 7.68222 78.8232 6.9405C78.8232 6.30474 78.6035 5.8809 78.0542 5.8809Z" fill="#E12127"/>
<path d="M92.2248 6.9405L91.1816 11.9206H89.0392L90.1376 6.83454C90.1376 6.72858 90.1928 6.6756 90.1928 6.56964C90.1928 6.1458 89.9184 5.8809 89.3136 5.8809C88.9296 5.8809 88.5448 6.03984 88.2704 6.25176L87.0624 11.9206H84.92L86.0184 6.83454C86.0184 6.72858 86.0736 6.6756 86.0736 6.56964C86.0736 6.1458 85.744 5.8809 85.0848 5.8809C84.7552 5.8809 84.4256 5.93388 84.1512 6.03984L82.888 11.9206H80.7456L82.2288 5.13917C83.1072 4.76832 84.1512 4.60938 85.3592 4.60938C86.348 4.60938 87.172 4.92725 87.5016 5.35109C87.996 4.98024 88.9296 4.60938 90.1928 4.60938C91.7304 4.60938 92.4448 5.35109 92.4448 6.4107C92.28 6.62262 92.28 6.78156 92.2248 6.9405Z" fill="#E12127"/>
</g>
<defs>
<clipPath id="clip0_4987_196">
<rect width="92" height="16" fill="white" transform="translate(0.280029)"/>
</clipPath>
</defs>
</svg>
