<svg width="26" height="26" viewBox="0 0 26 26" fill="none" xmlns="http://www.w3.org/2000/svg">
<g clip-path="url(#clip0_3737_30217)">
<path d="M13 26C20.1797 26 26 20.1797 26 13C26 5.8203 20.1797 0 13 0C5.8203 0 0 5.8203 0 13C0 20.1797 5.8203 26 13 26Z" fill="#3A559F"/>
<path d="M17.1188 11.4607L16.8573 13.7253C16.8465 13.8287 16.7981 13.9244 16.7213 13.9944C16.6445 14.0644 16.5446 14.1038 16.4407 14.105H14.0771L14.0653 20.8192C14.0661 20.8988 14.0355 20.9755 13.9803 21.0327C13.925 21.0899 13.8494 21.1231 13.7698 21.125H11.3752C11.3354 21.125 11.2959 21.117 11.2593 21.1014C11.2227 21.0859 11.1896 21.063 11.162 21.0343C11.1344 21.0056 11.1129 20.9716 11.0987 20.9344C11.0846 20.8972 11.0781 20.8575 11.0797 20.8177V14.105H9.30699C9.25131 14.1044 9.19629 14.0929 9.14508 14.071C9.09386 14.0492 9.04744 14.0175 9.00848 13.9777C8.96953 13.9379 8.93878 13.8908 8.91802 13.8392C8.89725 13.7875 8.88686 13.7323 8.88745 13.6766L8.87858 11.4119C8.8778 11.3561 8.88803 11.3006 8.9087 11.2487C8.92936 11.1967 8.96004 11.1494 8.999 11.1093C9.03796 11.0693 9.08443 11.0373 9.13576 11.0152C9.18708 10.9931 9.24225 10.9813 9.29813 10.9806H11.0797V8.7942C11.0797 6.25625 12.5865 4.875 14.7965 4.875H16.6077C16.6637 4.87558 16.719 4.88721 16.7705 4.90922C16.822 4.93123 16.8686 4.96319 16.9078 5.00326C16.9469 5.04334 16.9777 5.09074 16.9984 5.14276C17.0192 5.19477 17.0295 5.25037 17.0287 5.30636V7.21205C17.0295 7.26804 17.0192 7.32364 16.9984 7.37565C16.9777 7.42767 16.9469 7.47507 16.9078 7.51515C16.8686 7.55522 16.822 7.58718 16.7705 7.60919C16.719 7.6312 16.6637 7.64283 16.6077 7.64341H15.4968C14.2957 7.64341 14.0623 8.23432 14.0623 9.08818V10.9806H16.7022C16.7623 10.9813 16.8215 10.9948 16.8759 11.02C16.9304 11.0453 16.9789 11.0818 17.0182 11.1272C17.0576 11.1725 17.0869 11.2257 17.1042 11.2832C17.1216 11.3406 17.1265 11.4011 17.1188 11.4607Z" fill="white"/>
</g>
<defs>
<clipPath id="clip0_3737_30217">
<rect width="26" height="26" fill="white"/>
</clipPath>
</defs>
</svg>
