<svg width="27" height="26" viewBox="0 0 27 26" fill="none" xmlns="http://www.w3.org/2000/svg">
<g clip-path="url(#clip0_3737_30328)">
<path d="M13.6658 26C20.8455 26 26.6658 20.1797 26.6658 13C26.6658 5.8203 20.8455 0 13.6658 0C6.48607 0 0.665771 5.8203 0.665771 13C0.665771 20.1797 6.48607 26 13.6658 26Z" fill="#03A9F4"/>
<path d="M22.0867 7.77785C21.4533 8.05448 20.7833 8.23826 20.0974 8.3235C20.8204 7.89473 21.3609 7.21545 21.6163 6.41456C20.9396 6.81625 20.199 7.09915 19.4268 7.251C18.9536 6.74494 18.3391 6.39299 17.6632 6.24092C16.9873 6.08885 16.2812 6.14369 15.6369 6.39833C14.9925 6.65296 14.4397 7.0956 14.0504 7.66867C13.661 8.24173 13.4531 8.9187 13.4537 9.61153C13.4513 9.87598 13.4782 10.1399 13.5341 10.3984C12.1605 10.3309 10.8166 9.97442 9.59012 9.35221C8.36367 8.72999 7.28228 7.85604 6.41658 6.78745C5.9716 7.54762 5.83374 8.44904 6.03118 9.30746C6.22862 10.1659 6.74644 10.9165 7.47882 11.4059C6.93217 11.3911 6.3971 11.245 5.91882 10.98V11.0176C5.92035 11.8144 6.19616 12.5864 6.69986 13.2038C7.20357 13.8212 7.90446 14.2464 8.68474 14.4078C8.38945 14.4854 8.08516 14.5234 7.77987 14.5207C7.56004 14.5248 7.34041 14.5053 7.12474 14.4626C7.34828 15.1479 7.77865 15.747 8.35666 16.1777C8.93467 16.6084 9.63192 16.8494 10.3525 16.8676C9.1314 17.822 7.62605 18.3405 6.07618 18.3403C5.80003 18.3427 5.52403 18.3267 5.25 18.2925C6.83031 19.3113 8.67235 19.8497 10.5526 19.8422C16.9072 19.8422 20.3813 14.5789 20.3813 10.0169C20.3813 9.86469 20.3813 9.71758 20.3693 9.57048C21.0459 9.08219 21.6279 8.47473 22.0867 7.77785Z" fill="white"/>
</g>
<defs>
<clipPath id="clip0_3737_30328">
<rect width="26" height="26" fill="white" transform="translate(0.665771)"/>
</clipPath>
</defs>
</svg>
