<svg width="20" height="20" viewBox="0 0 20 20" fill="none" xmlns="http://www.w3.org/2000/svg">
<path fill-rule="evenodd" clip-rule="evenodd" d="M18.3334 10C18.3334 14.6024 14.6024 18.3333 10 18.3333C5.39765 18.3333 1.66669 14.6024 1.66669 10C1.66669 5.39762 5.39765 1.66666 10 1.66666C14.6024 1.66666 18.3334 5.39762 18.3334 10ZM10.0031 5.83333C9.95868 5.83333 9.91424 5.83333 9.86092 5.84227C9.25664 5.91382 8.8212 6.44147 8.90118 7.02279L9.29218 10.1798C9.33662 10.5196 9.64765 10.779 10.0031 10.779C10.3675 10.779 10.6696 10.5196 10.714 10.1798L11.105 7.02279C11.1139 6.97807 11.1139 6.93335 11.1139 6.88864C11.1139 6.30732 10.6163 5.83333 10.0031 5.83333ZM10.0028 14.1667C10.6139 14.1667 11.1139 13.6721 11.1139 13.0676C11.1139 12.4632 10.6139 11.9686 10.0028 11.9686C9.3917 11.9686 8.8917 12.4632 8.8917 13.0676C8.8917 13.6721 9.3917 14.1667 10.0028 14.1667Z" fill="white"/>
</svg>
